<?xml version="1.0" encoding="UTF-8" standalone="no"?>
<!-- Created with Inkscape (http://www.inkscape.org/) -->

<svg
   width="63.999996"
   height="63.999996"
   viewBox="0 0 16.933332 16.933332"
   version="1.1"
   id="svg896"
   inkscape:version="1.1.1 (3bf5ae0d25, 2021-09-20)"
   sodipodi:docname="itch_banner.svg"
   inkscape:export-filename="C:\Users\alexl\Documents\GitHub\GamesRightMeow.github.io\itch_banner.png"
   inkscape:export-xdpi="58.048332"
   inkscape:export-ydpi="58.048332"
   xmlns:inkscape="http://www.inkscape.org/namespaces/inkscape"
   xmlns:sodipodi="http://sodipodi.sourceforge.net/DTD/sodipodi-0.dtd"
   xmlns="http://www.w3.org/2000/svg"
   xmlns:svg="http://www.w3.org/2000/svg"
   xmlns:rdf="http://www.w3.org/1999/02/22-rdf-syntax-ns#"
   xmlns:cc="http://creativecommons.org/ns#"
   xmlns:dc="http://purl.org/dc/elements/1.1/">
  <defs
     id="defs890" />
  <sodipodi:namedview
     id="base"
     pagecolor="#ffffff"
     bordercolor="#666666"
     borderopacity="1.0"
     inkscape:pageopacity="0.0"
     inkscape:pageshadow="2"
     inkscape:zoom="0.49497475"
     inkscape:cx="960.65506"
     inkscape:cy="332.34018"
     inkscape:document-units="px"
     inkscape:current-layer="layer1"
     showgrid="false"
     inkscape:pagecheckerboard="true"
     fit-margin-top="0"
     fit-margin-left="0"
     fit-margin-right="0"
     fit-margin-bottom="0"
     units="px"
     inkscape:window-width="1920"
     inkscape:window-height="1017"
     inkscape:window-x="-8"
     inkscape:window-y="-8"
     inkscape:window-maximized="1" />
  <metadata
     id="metadata893">
    <rdf:RDF>
      <cc:Work
         rdf:about="">
        <dc:format>image/svg+xml</dc:format>
        <dc:type
           rdf:resource="http://purl.org/dc/dcmitype/StillImage" />
        <dc:title />
      </cc:Work>
    </rdf:RDF>
  </metadata>
  <g
     inkscape:label="Layer 1"
     inkscape:groupmode="layer"
     id="layer1"
     transform="translate(72.742146,29.703091)">
    <rect
       style="fill:#101419;fill-opacity:1;stroke:none;stroke-width:0.924969;stop-color:#000000"
       id="rect15511"
       width="433.12244"
       height="74.192001"
       x="-78.480927"
       y="-149.29251"
       inkscape:export-filename="C:\Users\alexl\Documents\GitHub\GamesRightMeow.github.io\rect15511.png"
       inkscape:export-xdpi="58.048332"
       inkscape:export-ydpi="58.048332" />
    <g
       transform="matrix(12.090059,0,0,12.090059,785.61774,143.52978)"
       id="g828-5-8"
       inkscape:export-filename="E:\GitRPI\GamesRightMeow\static\favicon_128.png"
       inkscape:export-xdpi="96"
       inkscape:export-ydpi="96">
      <circle
         style="opacity:1;fill:#d1d5db;fill-opacity:1;stroke:none;stroke-width:2.16492;stroke-miterlimit:4;stroke-dasharray:none;stroke-dashoffset:0;stroke-opacity:1"
         id="circle824-5-5"
         cx="-68.641106"
         cy="-21.028538"
         r="2.2855747" />
      <path
         inkscape:export-ydpi="96"
         inkscape:export-xdpi="96"
         inkscape:export-filename="E:\GitRPI\GamesRightMeow\static\favicon_16.png"
         style="opacity:1;fill:#f87171;fill-opacity:1;stroke:none;stroke-width:0.0433143;stroke-miterlimit:4;stroke-dasharray:none;stroke-dashoffset:0;stroke-opacity:1"
         d="m -68.09327,-23.073081 a 2.116667,2.116667 0 0 0 -2.592377,1.496709 2.116667,2.116667 0 0 0 1.496709,2.592377 2.116667,2.116667 0 0 0 2.592377,-1.496709 2.116667,2.116667 0 0 0 -1.496709,-2.592377 z m -0.752126,0.406679 c 0.09873,0.02646 0.17765,0.08711 0.236749,0.18196 0.0591,0.09486 0.09456,0.197124 0.106401,0.3068 0.01184,0.109675 0.0051,0.211942 -0.02037,0.306825 -0.02061,0.07693 -0.0523,0.146441 -0.09503,0.208514 -0.04274,0.06207 -0.09902,0.110543 -0.168833,0.14543 -0.06982,0.03489 -0.143826,0.04185 -0.222043,0.0209 -0.09745,-0.02611 -0.17605,-0.08668 -0.235789,-0.181704 -0.05974,-0.09503 -0.09543,-0.197694 -0.107102,-0.308013 -0.01167,-0.110316 -0.005,-0.21227 0.02012,-0.305869 0.02061,-0.07693 0.0523,-0.146441 0.09503,-0.208513 0.04274,-0.06207 0.09902,-0.110542 0.168836,-0.145431 0.06981,-0.03489 0.143827,-0.04185 0.222038,-0.02089 z m 1.20013,0.321574 c 0.07821,0.02096 0.138833,0.06399 0.181849,0.129112 0.04302,0.06512 0.06752,0.135241 0.0735,0.210367 0.006,0.07513 -0.0013,0.151161 -0.02196,0.228092 -0.02508,0.0936 -0.07024,0.185249 -0.135502,0.274951 -0.06526,0.08971 -0.147521,0.160766 -0.246771,0.213193 -0.09925,0.05242 -0.197609,0.06557 -0.295053,0.03946 -0.07822,-0.02096 -0.138831,-0.06399 -0.181848,-0.129114 -0.04302,-0.06512 -0.06752,-0.135239 -0.0735,-0.210365 -0.006,-0.07512 0.0013,-0.151162 0.02196,-0.228093 0.02542,-0.09488 0.07068,-0.186841 0.135775,-0.275904 0.06509,-0.08906 0.146937,-0.159897 0.245544,-0.212494 0.09861,-0.0526 0.197283,-0.06566 0.296011,-0.03921 z m -2.140525,0.426199 c 0.09745,0.02611 0.178631,0.08601 0.24355,0.179671 0.06492,0.09367 0.106323,0.196836 0.124231,0.309511 0.01791,0.11268 0.01415,0.216447 -0.01128,0.311329 -0.02749,0.102575 -0.07829,0.184483 -0.152414,0.245704 -0.07412,0.06122 -0.160545,0.07859 -0.259273,0.05214 -0.09744,-0.02611 -0.178624,-0.08599 -0.24354,-0.179652 -0.06491,-0.09366 -0.106422,-0.196524 -0.124503,-0.308561 -0.01808,-0.112034 -0.01441,-0.21549 0.01102,-0.310372 0.02748,-0.102575 0.07837,-0.184796 0.152668,-0.246658 0.0743,-0.06186 0.160807,-0.07956 0.259536,-0.05311 z m 2.581047,0.69159 c 0.09873,0.02645 0.164798,0.08504 0.198209,0.175762 0.03341,0.09072 0.03637,0.18737 0.0089,0.289945 -0.02542,0.09488 -0.07397,0.186313 -0.145645,0.274298 -0.07167,0.08799 -0.159035,0.156318 -0.262088,0.204975 -0.10305,0.04866 -0.203306,0.05992 -0.300752,0.03381 -0.09873,-0.02646 -0.164884,-0.08471 -0.198467,-0.17479 -0.03358,-0.09008 -0.03663,-0.186419 -0.0092,-0.288993 0.02542,-0.09488 0.07406,-0.186626 0.145902,-0.275255 0.07185,-0.08862 0.159293,-0.157269 0.262344,-0.205927 0.10305,-0.04866 0.203311,-0.05994 0.300755,-0.03383 z m -1.45285,0.260039 c 0.151299,0.04054 0.298016,0.146856 0.440183,0.318937 0.142163,0.172079 0.248256,0.363355 0.31829,0.573825 0.07003,0.210476 0.0853,0.389436 0.04579,0.536886 -0.0158,0.05898 -0.03984,0.10511 -0.07211,0.138379 -0.03228,0.03327 -0.0711,0.05377 -0.116473,0.06154 -0.04537,0.0078 -0.09015,0.0095 -0.134354,0.0052 -0.0442,-0.0043 -0.09387,-0.0138 -0.149006,-0.02858 -0.08719,-0.02336 -0.199669,-0.08441 -0.337429,-0.183169 -0.13776,-0.09875 -0.247024,-0.158955 -0.327801,-0.180599 -0.08462,-0.02267 -0.215678,-0.02721 -0.393162,-0.01361 -0.177485,0.0136 -0.313671,0.0077 -0.408553,-0.01774 -0.234641,-0.06287 -0.326882,-0.187905 -0.276722,-0.375103 0.02955,-0.110268 0.09834,-0.223417 0.206392,-0.339447 0.108045,-0.116033 0.230538,-0.215481 0.367491,-0.298345 0.136952,-0.08286 0.282241,-0.14425 0.435858,-0.184169 0.153618,-0.03992 0.287494,-0.04459 0.401607,-0.01402 z"
         id="path826-1-4"
         inkscape:connector-curvature="0" />
    </g>
    <text
       xml:space="preserve"
       style="font-style:normal;font-weight:normal;font-size:50.8px;line-height:1.25;font-family:sans-serif;letter-spacing:-1.16152px;fill:#d1d5db;fill-opacity:1;stroke:none;stroke-width:0.264583"
       x="-9.0101633"
       y="-94.649574"
       id="text1910"><tspan
         sodipodi:role="line"
         id="tspan1908"
         style="font-style:normal;font-variant:normal;font-weight:800;font-stretch:normal;font-size:50.8px;font-family:'Smooch Sans';-inkscape-font-specification:'Smooch Sans Ultra-Bold';fill:#d1d5db;fill-opacity:1;stroke-width:0.264583"
         x="-9.0101633"
         y="-94.649574"
         rotate="0 0 0 0 0 0 0 0 0 0 0 0 0 0">GAMES RIGHT MEOW</tspan></text>
    <rect
       style="fill:#101419;fill-opacity:1;stroke:none;stroke-width:0.924969;stop-color:#000000"
       id="rect15511-5"
       width="433.12244"
       height="74.192001"
       x="-62.124271"
       y="48.126797"
       inkscape:export-filename="C:\Users\alexl\Documents\GitHub\GamesRightMeow.github.io\rect15511.png"
       inkscape:export-xdpi="58.048332"
       inkscape:export-ydpi="58.048332" />
    <g
       transform="matrix(8.114182,0,0,8.114182,522.86623,257.87675)"
       id="g828-5-8-9"
       inkscape:export-filename="E:\GitRPI\GamesRightMeow\static\favicon_128.png"
       inkscape:export-xdpi="96"
       inkscape:export-ydpi="96">
      <circle
         style="opacity:1;fill:#d1d5db;fill-opacity:1;stroke:none;stroke-width:2.16492;stroke-miterlimit:4;stroke-dasharray:none;stroke-dashoffset:0;stroke-opacity:1"
         id="circle824-5-5-6"
         cx="-68.641106"
         cy="-21.028538"
         r="2.2855747" />
      <path
         inkscape:export-ydpi="96"
         inkscape:export-xdpi="96"
         inkscape:export-filename="E:\GitRPI\GamesRightMeow\static\favicon_16.png"
         style="opacity:1;fill:#f87171;fill-opacity:1;stroke:none;stroke-width:0.0433143;stroke-miterlimit:4;stroke-dasharray:none;stroke-dashoffset:0;stroke-opacity:1"
         d="m -68.09327,-23.073081 a 2.116667,2.116667 0 0 0 -2.592377,1.496709 2.116667,2.116667 0 0 0 1.496709,2.592377 2.116667,2.116667 0 0 0 2.592377,-1.496709 2.116667,2.116667 0 0 0 -1.496709,-2.592377 z m -0.752126,0.406679 c 0.09873,0.02646 0.17765,0.08711 0.236749,0.18196 0.0591,0.09486 0.09456,0.197124 0.106401,0.3068 0.01184,0.109675 0.0051,0.211942 -0.02037,0.306825 -0.02061,0.07693 -0.0523,0.146441 -0.09503,0.208514 -0.04274,0.06207 -0.09902,0.110543 -0.168833,0.14543 -0.06982,0.03489 -0.143826,0.04185 -0.222043,0.0209 -0.09745,-0.02611 -0.17605,-0.08668 -0.235789,-0.181704 -0.05974,-0.09503 -0.09543,-0.197694 -0.107102,-0.308013 -0.01167,-0.110316 -0.005,-0.21227 0.02012,-0.305869 0.02061,-0.07693 0.0523,-0.146441 0.09503,-0.208513 0.04274,-0.06207 0.09902,-0.110542 0.168836,-0.145431 0.06981,-0.03489 0.143827,-0.04185 0.222038,-0.02089 z m 1.20013,0.321574 c 0.07821,0.02096 0.138833,0.06399 0.181849,0.129112 0.04302,0.06512 0.06752,0.135241 0.0735,0.210367 0.006,0.07513 -0.0013,0.151161 -0.02196,0.228092 -0.02508,0.0936 -0.07024,0.185249 -0.135502,0.274951 -0.06526,0.08971 -0.147521,0.160766 -0.246771,0.213193 -0.09925,0.05242 -0.197609,0.06557 -0.295053,0.03946 -0.07822,-0.02096 -0.138831,-0.06399 -0.181848,-0.129114 -0.04302,-0.06512 -0.06752,-0.135239 -0.0735,-0.210365 -0.006,-0.07512 0.0013,-0.151162 0.02196,-0.228093 0.02542,-0.09488 0.07068,-0.186841 0.135775,-0.275904 0.06509,-0.08906 0.146937,-0.159897 0.245544,-0.212494 0.09861,-0.0526 0.197283,-0.06566 0.296011,-0.03921 z m -2.140525,0.426199 c 0.09745,0.02611 0.178631,0.08601 0.24355,0.179671 0.06492,0.09367 0.106323,0.196836 0.124231,0.309511 0.01791,0.11268 0.01415,0.216447 -0.01128,0.311329 -0.02749,0.102575 -0.07829,0.184483 -0.152414,0.245704 -0.07412,0.06122 -0.160545,0.07859 -0.259273,0.05214 -0.09744,-0.02611 -0.178624,-0.08599 -0.24354,-0.179652 -0.06491,-0.09366 -0.106422,-0.196524 -0.124503,-0.308561 -0.01808,-0.112034 -0.01441,-0.21549 0.01102,-0.310372 0.02748,-0.102575 0.07837,-0.184796 0.152668,-0.246658 0.0743,-0.06186 0.160807,-0.07956 0.259536,-0.05311 z m 2.581047,0.69159 c 0.09873,0.02645 0.164798,0.08504 0.198209,0.175762 0.03341,0.09072 0.03637,0.18737 0.0089,0.289945 -0.02542,0.09488 -0.07397,0.186313 -0.145645,0.274298 -0.07167,0.08799 -0.159035,0.156318 -0.262088,0.204975 -0.10305,0.04866 -0.203306,0.05992 -0.300752,0.03381 -0.09873,-0.02646 -0.164884,-0.08471 -0.198467,-0.17479 -0.03358,-0.09008 -0.03663,-0.186419 -0.0092,-0.288993 0.02542,-0.09488 0.07406,-0.186626 0.145902,-0.275255 0.07185,-0.08862 0.159293,-0.157269 0.262344,-0.205927 0.10305,-0.04866 0.203311,-0.05994 0.300755,-0.03383 z m -1.45285,0.260039 c 0.151299,0.04054 0.298016,0.146856 0.440183,0.318937 0.142163,0.172079 0.248256,0.363355 0.31829,0.573825 0.07003,0.210476 0.0853,0.389436 0.04579,0.536886 -0.0158,0.05898 -0.03984,0.10511 -0.07211,0.138379 -0.03228,0.03327 -0.0711,0.05377 -0.116473,0.06154 -0.04537,0.0078 -0.09015,0.0095 -0.134354,0.0052 -0.0442,-0.0043 -0.09387,-0.0138 -0.149006,-0.02858 -0.08719,-0.02336 -0.199669,-0.08441 -0.337429,-0.183169 -0.13776,-0.09875 -0.247024,-0.158955 -0.327801,-0.180599 -0.08462,-0.02267 -0.215678,-0.02721 -0.393162,-0.01361 -0.177485,0.0136 -0.313671,0.0077 -0.408553,-0.01774 -0.234641,-0.06287 -0.326882,-0.187905 -0.276722,-0.375103 0.02955,-0.110268 0.09834,-0.223417 0.206392,-0.339447 0.108045,-0.116033 0.230538,-0.215481 0.367491,-0.298345 0.136952,-0.08286 0.282241,-0.14425 0.435858,-0.184169 0.153618,-0.03992 0.287494,-0.04459 0.401607,-0.01402 z"
         id="path826-1-4-8"
         inkscape:connector-curvature="0" />
    </g>
    <text
       xml:space="preserve"
       style="font-style:normal;font-weight:normal;font-size:50.8px;line-height:1.25;font-family:sans-serif;letter-spacing:-1.16152px;fill:#d1d5db;fill-opacity:1;stroke:none;stroke-width:0.264583"
       x="-13.820176"
       y="102.76974"
       id="text1910-3"><tspan
         sodipodi:role="line"
         id="tspan1908-1"
         style="font-style:normal;font-variant:normal;font-weight:800;font-stretch:normal;font-size:50.8px;font-family:'Smooch Sans';-inkscape-font-specification:'Smooch Sans Ultra-Bold';fill:#d1d5db;fill-opacity:1;stroke-width:0.264583"
         x="-13.820176"
         y="102.76974"
         rotate="0 0 0 0 0 0 0 0 0 0 0 0 0 0">GAMES RIGHT MEOW</tspan></text>
    <rect
       style="fill:#101419;fill-opacity:1;stroke:none;stroke-width:0.924969;stop-color:#000000"
       id="rect15511-3"
       width="433.12244"
       height="74.192001"
       x="-76.556824"
       y="-49.69384"
       inkscape:export-filename="C:\Users\alexl\Documents\GitHub\GamesRightMeow.github.io\rect15511.png"
       inkscape:export-xdpi="58.048332"
       inkscape:export-ydpi="58.048332" />
    <g
       transform="matrix(6.6258099,0,0,6.6258099,640.13575,129.8202)"
       id="g828-5-8-3"
       inkscape:export-filename="E:\GitRPI\GamesRightMeow\static\favicon_128.png"
       inkscape:export-xdpi="96"
       inkscape:export-ydpi="96">
      <circle
         style="opacity:1;fill:#d1d5db;fill-opacity:1;stroke:none;stroke-width:2.16492;stroke-miterlimit:4;stroke-dasharray:none;stroke-dashoffset:0;stroke-opacity:1"
         id="circle824-5-5-4"
         cx="-68.641106"
         cy="-21.028538"
         r="2.2855747" />
      <path
         inkscape:export-ydpi="96"
         inkscape:export-xdpi="96"
         inkscape:export-filename="E:\GitRPI\GamesRightMeow\static\favicon_16.png"
         style="opacity:1;fill:#f87171;fill-opacity:1;stroke:none;stroke-width:0.0433143;stroke-miterlimit:4;stroke-dasharray:none;stroke-dashoffset:0;stroke-opacity:1"
         d="m -68.09327,-23.073081 a 2.116667,2.116667 0 0 0 -2.592377,1.496709 2.116667,2.116667 0 0 0 1.496709,2.592377 2.116667,2.116667 0 0 0 2.592377,-1.496709 2.116667,2.116667 0 0 0 -1.496709,-2.592377 z m -0.752126,0.406679 c 0.09873,0.02646 0.17765,0.08711 0.236749,0.18196 0.0591,0.09486 0.09456,0.197124 0.106401,0.3068 0.01184,0.109675 0.0051,0.211942 -0.02037,0.306825 -0.02061,0.07693 -0.0523,0.146441 -0.09503,0.208514 -0.04274,0.06207 -0.09902,0.110543 -0.168833,0.14543 -0.06982,0.03489 -0.143826,0.04185 -0.222043,0.0209 -0.09745,-0.02611 -0.17605,-0.08668 -0.235789,-0.181704 -0.05974,-0.09503 -0.09543,-0.197694 -0.107102,-0.308013 -0.01167,-0.110316 -0.005,-0.21227 0.02012,-0.305869 0.02061,-0.07693 0.0523,-0.146441 0.09503,-0.208513 0.04274,-0.06207 0.09902,-0.110542 0.168836,-0.145431 0.06981,-0.03489 0.143827,-0.04185 0.222038,-0.02089 z m 1.20013,0.321574 c 0.07821,0.02096 0.138833,0.06399 0.181849,0.129112 0.04302,0.06512 0.06752,0.135241 0.0735,0.210367 0.006,0.07513 -0.0013,0.151161 -0.02196,0.228092 -0.02508,0.0936 -0.07024,0.185249 -0.135502,0.274951 -0.06526,0.08971 -0.147521,0.160766 -0.246771,0.213193 -0.09925,0.05242 -0.197609,0.06557 -0.295053,0.03946 -0.07822,-0.02096 -0.138831,-0.06399 -0.181848,-0.129114 -0.04302,-0.06512 -0.06752,-0.135239 -0.0735,-0.210365 -0.006,-0.07512 0.0013,-0.151162 0.02196,-0.228093 0.02542,-0.09488 0.07068,-0.186841 0.135775,-0.275904 0.06509,-0.08906 0.146937,-0.159897 0.245544,-0.212494 0.09861,-0.0526 0.197283,-0.06566 0.296011,-0.03921 z m -2.140525,0.426199 c 0.09745,0.02611 0.178631,0.08601 0.24355,0.179671 0.06492,0.09367 0.106323,0.196836 0.124231,0.309511 0.01791,0.11268 0.01415,0.216447 -0.01128,0.311329 -0.02749,0.102575 -0.07829,0.184483 -0.152414,0.245704 -0.07412,0.06122 -0.160545,0.07859 -0.259273,0.05214 -0.09744,-0.02611 -0.178624,-0.08599 -0.24354,-0.179652 -0.06491,-0.09366 -0.106422,-0.196524 -0.124503,-0.308561 -0.01808,-0.112034 -0.01441,-0.21549 0.01102,-0.310372 0.02748,-0.102575 0.07837,-0.184796 0.152668,-0.246658 0.0743,-0.06186 0.160807,-0.07956 0.259536,-0.05311 z m 2.581047,0.69159 c 0.09873,0.02645 0.164798,0.08504 0.198209,0.175762 0.03341,0.09072 0.03637,0.18737 0.0089,0.289945 -0.02542,0.09488 -0.07397,0.186313 -0.145645,0.274298 -0.07167,0.08799 -0.159035,0.156318 -0.262088,0.204975 -0.10305,0.04866 -0.203306,0.05992 -0.300752,0.03381 -0.09873,-0.02646 -0.164884,-0.08471 -0.198467,-0.17479 -0.03358,-0.09008 -0.03663,-0.186419 -0.0092,-0.288993 0.02542,-0.09488 0.07406,-0.186626 0.145902,-0.275255 0.07185,-0.08862 0.159293,-0.157269 0.262344,-0.205927 0.10305,-0.04866 0.203311,-0.05994 0.300755,-0.03383 z m -1.45285,0.260039 c 0.151299,0.04054 0.298016,0.146856 0.440183,0.318937 0.142163,0.172079 0.248256,0.363355 0.31829,0.573825 0.07003,0.210476 0.0853,0.389436 0.04579,0.536886 -0.0158,0.05898 -0.03984,0.10511 -0.07211,0.138379 -0.03228,0.03327 -0.0711,0.05377 -0.116473,0.06154 -0.04537,0.0078 -0.09015,0.0095 -0.134354,0.0052 -0.0442,-0.0043 -0.09387,-0.0138 -0.149006,-0.02858 -0.08719,-0.02336 -0.199669,-0.08441 -0.337429,-0.183169 -0.13776,-0.09875 -0.247024,-0.158955 -0.327801,-0.180599 -0.08462,-0.02267 -0.215678,-0.02721 -0.393162,-0.01361 -0.177485,0.0136 -0.313671,0.0077 -0.408553,-0.01774 -0.234641,-0.06287 -0.326882,-0.187905 -0.276722,-0.375103 0.02955,-0.110268 0.09834,-0.223417 0.206392,-0.339447 0.108045,-0.116033 0.230538,-0.215481 0.367491,-0.298345 0.136952,-0.08286 0.282241,-0.14425 0.435858,-0.184169 0.153618,-0.03992 0.287494,-0.04459 0.401607,-0.01402 z"
         id="path826-1-4-6"
         inkscape:connector-curvature="0" />
    </g>
    <path
       d="m -60.730867,5.3046991 q -2.9972,0 -4.9276,-0.7112 -1.8796,-0.7112 -2.794,-2.032 -0.9144,-1.3716 -0.9144,-3.25119995 V -20.400101 q 0,-3.6068 2.032,-5.029199 2.0828,-1.4224 6.4516,-1.4224 4.165601,0 6.350001,1.4224 2.2352,1.422399 2.2352,5.079999 v 4.318 l -6.807201,0.254 v -3.2004 q 0,-1.4732 -0.3556,-1.9304 -0.3048,-0.4572 -1.3208,-0.4572 -1.1176,0 -1.4732,0.5588 -0.3048,0.508 -0.3048,1.778 v 17.2720002 q 0,0.5588 0.1524,0.91439995 0.2032,0.3048 0.6096,0.45719999 0.4064,0.1524 1.1176,0.1524 0.6604,0 1.0668,-0.1524 0.4064,-0.15239999 0.5588,-0.45719999 0.2032,-0.35559995 0.2032,-0.91439995 v -4.5212 h -2.2352 l 0.4064,-5.6896002 h 8.382001 v 11.27760015 q 0,1.87959995 -1.016,3.25119995 -0.9652,1.3208 -2.8448,2.032 -1.879601,0.7112 -4.572001,0.7112 z"
       style="font-weight:800;font-size:50.8px;line-height:1.25;font-family:'Smooch Sans';-inkscape-font-specification:'Smooch Sans Ultra-Bold';letter-spacing:-1.16152px;fill:#d1d5db;stroke-width:0.264583"
       id="path15698" />
    <path
       d="M -53.053266,4.9490991 -46.550867,-26.5469 h 7.0104 l 6.5024,31.4959991 h -7.0612 l -1.2192,-6.4007999 1.0668,0.96519995 h -5.842 l 0.8636,-0.96519995 -1.016,6.4007999 z m 8.077199,-10.0583999 -0.5588,-0.7112 h 4.9276 l -0.8128,0.7112 -1.524,-12.2936002 -0.0508,-1.2192 h -0.254 l -0.0508,1.2192 z"
       style="font-weight:800;font-size:50.8px;line-height:1.25;font-family:'Smooch Sans';-inkscape-font-specification:'Smooch Sans Ultra-Bold';letter-spacing:-1.16152px;fill:#d1d5db;stroke-width:0.264583"
       id="path15700" />
    <path
       d="M -32.574062,4.9490991 V -26.5469 h 8.534399 l 4.4196,17.5259993 v 0.3048 h 0.1016 v -0.3048 l 4.4196,-17.5259993 h 8.5343996 V 4.9490991 H -13.320863 V -12.119701 h -0.1016 v 1.2192 l -3.4036,11.27760013 h -5.4864 l -3.4036,-11.22680013 v -1.2192 h -0.1016 V 4.9490991 Z"
       style="font-weight:800;font-size:50.8px;line-height:1.25;font-family:'Smooch Sans';-inkscape-font-specification:'Smooch Sans Ultra-Bold';letter-spacing:-1.16152px;fill:#d1d5db;stroke-width:0.264583"
       id="path15702" />
    <path
       d="M -4.8812417,-26.5469 H 11.273157 v 5.283199 H 1.8751578 v 6.5024 H 10.155557 L 9.3427574,-9.4781007 H 1.8751578 v 9.14399984 H 11.273157 V 4.9490991 H -4.8812417 Z"
       style="font-weight:800;font-size:50.8px;line-height:1.25;font-family:'Smooch Sans';-inkscape-font-specification:'Smooch Sans Ultra-Bold';letter-spacing:-1.16152px;fill:#d1d5db;stroke-width:0.264583"
       id="path15704" />
    <path
       d="m 20.830415,5.4062991 q -2.3368,0 -4.3688,-0.3556 -2.032,-0.3048 -3.302,-1.1684 -1.2192,-0.8636 -1.2192,-2.54 v -7.3659999 l 6.7564,-0.7112 v 5.1816 q 0,0.71119995 0.3048,1.16839994 0.3556,0.4064 1.4224,0.4064 0.7112,0 1.0668,-0.2032 0.3556,-0.254 0.508,-0.60959999 0.1524,-0.40639995 0.1524,-0.91439995 v -2.8956 q 0,-1.1684 -0.5588,-2.1844 -0.508,-1.0667999 -2.0828,-1.5747999 l -3.3528,-1.0668 q -2.1844,-0.7112003 -3.2004,-1.8288003 -1.016,-1.1176 -1.016,-3.6068 v -7.0104 q 0,-2.235199 1.2192,-3.301999 1.2192,-1.0668 3.2512,-1.3716 2.032,-0.3556 4.318,-0.3556 2.1844,0 4.0132,0.3556 1.8796,0.3556 2.9972,1.27 1.1684,0.8636 1.1684,2.438399 v 7.366 l -6.7564,0.9144 v -4.826 q 0,-1.524 -0.4064,-1.8796 -0.4064,-0.4064 -1.27,-0.4064 -0.9144,0 -1.3716,0.4572 -0.4064,0.4572 -0.4064,2.032 v 2.3368 q 0,1.016 0.3556,2.032 0.3556,0.9652 1.524,1.3716 l 3.81,1.27 q 2.3876,0.8128 3.4544,1.9304 1.0668,1.1176003 1.0668,3.5052002 v 6.95959993 q 0,2.13359997 -1.1176,3.25119997 -1.1176,1.1176 -2.9464,1.524 -1.8288,0.4064 -4.0132,0.4064 z"
       style="font-weight:800;font-size:50.8px;line-height:1.25;font-family:'Smooch Sans';-inkscape-font-specification:'Smooch Sans Ultra-Bold';letter-spacing:-1.16152px;fill:#d1d5db;stroke-width:0.264583"
       id="path15706" />
    <path
       d="M 36.795296,-26.5469 H 49.29209 q 2.1844,0 3.200397,0.5588 1.0668,0.508 1.3716,1.6256 0.3556,1.066799 0.3556,2.692399 v 6.9596 q 0,1.8288 -0.3048,3.4544 -0.3048,1.5748003 -1.574797,2.5908003 -1.27,0.9652 -4.1656,0.9652 H 43.551693 V 4.9490991 H 36.795296 Z M 49.74929,6.117499 44.161293,-8.1065007 l 4.521197,-0.1016 1.9304,0.4572 0.3048,0.254 5.130797,11.1251998 z m -3.962397,-19.1008 q 0.9652,0 1.320797,-0.5588 0.3556,-0.5588 0.3556,-1.8796 v -2.9972 q 0,-1.9304 -0.3048,-2.3876 -0.304797,-0.4572 -1.269997,-0.4572 h -2.3368 v 8.2804 z"
       style="font-weight:800;font-size:50.8px;line-height:1.25;font-family:'Smooch Sans';-inkscape-font-specification:'Smooch Sans Ultra-Bold';letter-spacing:-1.16152px;fill:#d1d5db;stroke-width:0.264583"
       id="path15708" />
    <path
       d="m 56.156937,-26.5469 h 6.756397 V 4.9490991 h -6.756397 z"
       style="font-weight:800;font-size:50.8px;line-height:1.25;font-family:'Smooch Sans';-inkscape-font-specification:'Smooch Sans Ultra-Bold';letter-spacing:-1.16152px;fill:#d1d5db;stroke-width:0.264583"
       id="path15710" />
    <path
       d="m 73.029368,5.3046991 q -2.9972,0 -4.927597,-0.7112 -1.8796,-0.7112 -2.794,-2.032 -0.9144,-1.3716 -0.9144,-3.25119995 V -20.400101 q 0,-3.6068 2.032,-5.029199 2.082797,-1.4224 6.451597,-1.4224 4.165597,0 6.349994,1.4224 2.2352,1.422399 2.2352,5.079999 v 4.318 l -6.807197,0.254 v -3.2004 q 0,-1.4732 -0.3556,-1.9304 -0.3048,-0.4572 -1.320797,-0.4572 -1.1176,0 -1.4732,0.5588 -0.3048,0.508 -0.3048,1.778 v 17.2720002 q 0,0.5588 0.1524,0.91439995 0.2032,0.3048 0.6096,0.45719999 0.4064,0.1524 1.1176,0.1524 0.660397,0 1.066797,-0.1524 0.4064,-0.15239999 0.5588,-0.45719999 0.2032,-0.35559995 0.2032,-0.91439995 v -4.5212 h -2.235197 l 0.4064,-5.6896002 h 8.381994 v 11.27760015 q 0,1.87959995 -1.016,3.25119995 -0.9652,1.3208 -2.844797,2.032 -1.8796,0.7112 -4.571997,0.7112 z"
       style="font-weight:800;font-size:50.8px;line-height:1.25;font-family:'Smooch Sans';-inkscape-font-specification:'Smooch Sans Ultra-Bold';letter-spacing:-1.16152px;fill:#d1d5db;stroke-width:0.264583"
       id="path15712" />
    <path
       d="m 82.789772,-26.5469 h 6.756394 v 11.785599 h 3.4544 V -26.5469 h 6.756397 V 4.9490991 H 93.000566 V -9.4781007 h -3.4544 V 4.9490991 h -6.756394 z"
       style="font-weight:800;font-size:50.8px;line-height:1.25;font-family:'Smooch Sans';-inkscape-font-specification:'Smooch Sans Ultra-Bold';letter-spacing:-1.16152px;fill:#d1d5db;stroke-width:0.264583"
       id="path15714" />
    <path
       d="m 105.85979,-21.263701 h -5.334 V -26.5469 h 17.4244 v 5.283199 h -5.334 V 4.9490991 h -6.7564 z"
       style="font-weight:800;font-size:50.8px;line-height:1.25;font-family:'Smooch Sans';-inkscape-font-specification:'Smooch Sans Ultra-Bold';letter-spacing:-1.16152px;fill:#d1d5db;stroke-width:0.264583"
       id="path15716" />
    <path
       d="M 125.3299,4.9490991 V -26.5469 h 8.5344 l 4.4196,17.5259993 v 0.3048 h 0.1016 v -0.3048 L 142.8051,-26.5469 h 8.5344 V 4.9490991 h -6.7564 V -12.119701 h -0.1016 v 1.2192 l -3.4036,11.27760013 h -5.4864 L 132.1879,-10.849701 v -1.2192 h -0.1016 V 4.9490991 Z"
       style="font-weight:800;font-size:50.8px;line-height:1.25;font-family:'Smooch Sans';-inkscape-font-specification:'Smooch Sans Ultra-Bold';letter-spacing:-1.16152px;fill:#d1d5db;stroke-width:0.264583"
       id="path15718" />
    <path
       d="m 153.02273,-26.5469 h 16.1544 v 5.283199 h -9.398 v 6.5024 h 8.2804 l -0.8128,5.2832003 h -7.4676 v 9.14399984 h 9.398 V 4.9490991 h -16.1544 z"
       style="font-weight:800;font-size:50.8px;line-height:1.25;font-family:'Smooch Sans';-inkscape-font-specification:'Smooch Sans Ultra-Bold';letter-spacing:-1.16152px;fill:#d1d5db;stroke-width:0.264583"
       id="path15720" />
    <path
       d="M 204.96237,4.9490991 198.56157,-26.5469 h 6.8072 l 2.9464,17.7799993 0.0508,1.1684 h 0.0508 v -1.1684 l 2.4892,-16.4591993 h 5.08 l 2.4384,16.4591993 0.0508,1.1684 h 0.0508 l 0.0508,-1.1684 2.6416,-17.7799993 h 7.0104 l -6.35,31.4959991 h -6.2992 l -1.9812,-14.4779998 -0.0508,-1.2192003 h -0.0508 l -0.0508,1.2192003 -2.1336,14.4779998 z"
       style="font-weight:800;font-size:50.8px;line-height:1.25;font-family:'Smooch Sans';-inkscape-font-specification:'Smooch Sans Ultra-Bold';letter-spacing:-1.16152px;fill:#d1d5db;stroke-width:0.264583"
       id="path15724" />
    <rect
       style="fill:#101419;fill-opacity:1;stroke:none;stroke-width:0.924969;stop-color:#000000"
       id="rect15511-3-8"
       width="433.12244"
       height="74.192001"
       x="-60.520657"
       y="141.67113"
       inkscape:export-filename="C:\Users\alexl\Documents\GitHub\GamesRightMeow.github.io\rect15511.png"
       inkscape:export-xdpi="58.048332"
       inkscape:export-ydpi="58.048332" />
    <g
       transform="matrix(8.0290606,0,0,8.0290606,751.95806,349.6244)"
       id="g828-5-8-3-1"
       inkscape:export-filename="E:\GitRPI\GamesRightMeow\static\favicon_128.png"
       inkscape:export-xdpi="96"
       inkscape:export-ydpi="96">
      <circle
         style="opacity:1;fill:#d1d5db;fill-opacity:1;stroke:none;stroke-width:2.16492;stroke-miterlimit:4;stroke-dasharray:none;stroke-dashoffset:0;stroke-opacity:1"
         id="circle824-5-5-4-1"
         cx="-68.641106"
         cy="-21.028538"
         r="2.2855747" />
      <path
         inkscape:export-ydpi="96"
         inkscape:export-xdpi="96"
         inkscape:export-filename="E:\GitRPI\GamesRightMeow\static\favicon_16.png"
         style="opacity:1;fill:#f87171;fill-opacity:1;stroke:none;stroke-width:0.0433143;stroke-miterlimit:4;stroke-dasharray:none;stroke-dashoffset:0;stroke-opacity:1"
         d="m -68.09327,-23.073081 a 2.116667,2.116667 0 0 0 -2.592377,1.496709 2.116667,2.116667 0 0 0 1.496709,2.592377 2.116667,2.116667 0 0 0 2.592377,-1.496709 2.116667,2.116667 0 0 0 -1.496709,-2.592377 z m -0.752126,0.406679 c 0.09873,0.02646 0.17765,0.08711 0.236749,0.18196 0.0591,0.09486 0.09456,0.197124 0.106401,0.3068 0.01184,0.109675 0.0051,0.211942 -0.02037,0.306825 -0.02061,0.07693 -0.0523,0.146441 -0.09503,0.208514 -0.04274,0.06207 -0.09902,0.110543 -0.168833,0.14543 -0.06982,0.03489 -0.143826,0.04185 -0.222043,0.0209 -0.09745,-0.02611 -0.17605,-0.08668 -0.235789,-0.181704 -0.05974,-0.09503 -0.09543,-0.197694 -0.107102,-0.308013 -0.01167,-0.110316 -0.005,-0.21227 0.02012,-0.305869 0.02061,-0.07693 0.0523,-0.146441 0.09503,-0.208513 0.04274,-0.06207 0.09902,-0.110542 0.168836,-0.145431 0.06981,-0.03489 0.143827,-0.04185 0.222038,-0.02089 z m 1.20013,0.321574 c 0.07821,0.02096 0.138833,0.06399 0.181849,0.129112 0.04302,0.06512 0.06752,0.135241 0.0735,0.210367 0.006,0.07513 -0.0013,0.151161 -0.02196,0.228092 -0.02508,0.0936 -0.07024,0.185249 -0.135502,0.274951 -0.06526,0.08971 -0.147521,0.160766 -0.246771,0.213193 -0.09925,0.05242 -0.197609,0.06557 -0.295053,0.03946 -0.07822,-0.02096 -0.138831,-0.06399 -0.181848,-0.129114 -0.04302,-0.06512 -0.06752,-0.135239 -0.0735,-0.210365 -0.006,-0.07512 0.0013,-0.151162 0.02196,-0.228093 0.02542,-0.09488 0.07068,-0.186841 0.135775,-0.275904 0.06509,-0.08906 0.146937,-0.159897 0.245544,-0.212494 0.09861,-0.0526 0.197283,-0.06566 0.296011,-0.03921 z m -2.140525,0.426199 c 0.09745,0.02611 0.178631,0.08601 0.24355,0.179671 0.06492,0.09367 0.106323,0.196836 0.124231,0.309511 0.01791,0.11268 0.01415,0.216447 -0.01128,0.311329 -0.02749,0.102575 -0.07829,0.184483 -0.152414,0.245704 -0.07412,0.06122 -0.160545,0.07859 -0.259273,0.05214 -0.09744,-0.02611 -0.178624,-0.08599 -0.24354,-0.179652 -0.06491,-0.09366 -0.106422,-0.196524 -0.124503,-0.308561 -0.01808,-0.112034 -0.01441,-0.21549 0.01102,-0.310372 0.02748,-0.102575 0.07837,-0.184796 0.152668,-0.246658 0.0743,-0.06186 0.160807,-0.07956 0.259536,-0.05311 z m 2.581047,0.69159 c 0.09873,0.02645 0.164798,0.08504 0.198209,0.175762 0.03341,0.09072 0.03637,0.18737 0.0089,0.289945 -0.02542,0.09488 -0.07397,0.186313 -0.145645,0.274298 -0.07167,0.08799 -0.159035,0.156318 -0.262088,0.204975 -0.10305,0.04866 -0.203306,0.05992 -0.300752,0.03381 -0.09873,-0.02646 -0.164884,-0.08471 -0.198467,-0.17479 -0.03358,-0.09008 -0.03663,-0.186419 -0.0092,-0.288993 0.02542,-0.09488 0.07406,-0.186626 0.145902,-0.275255 0.07185,-0.08862 0.159293,-0.157269 0.262344,-0.205927 0.10305,-0.04866 0.203311,-0.05994 0.300755,-0.03383 z m -1.45285,0.260039 c 0.151299,0.04054 0.298016,0.146856 0.440183,0.318937 0.142163,0.172079 0.248256,0.363355 0.31829,0.573825 0.07003,0.210476 0.0853,0.389436 0.04579,0.536886 -0.0158,0.05898 -0.03984,0.10511 -0.07211,0.138379 -0.03228,0.03327 -0.0711,0.05377 -0.116473,0.06154 -0.04537,0.0078 -0.09015,0.0095 -0.134354,0.0052 -0.0442,-0.0043 -0.09387,-0.0138 -0.149006,-0.02858 -0.08719,-0.02336 -0.199669,-0.08441 -0.337429,-0.183169 -0.13776,-0.09875 -0.247024,-0.158955 -0.327801,-0.180599 -0.08462,-0.02267 -0.215678,-0.02721 -0.393162,-0.01361 -0.177485,0.0136 -0.313671,0.0077 -0.408553,-0.01774 -0.234641,-0.06287 -0.326882,-0.187905 -0.276722,-0.375103 0.02955,-0.110268 0.09834,-0.223417 0.206392,-0.339447 0.108045,-0.116033 0.230538,-0.215481 0.367491,-0.298345 0.136952,-0.08286 0.282241,-0.14425 0.435858,-0.184169 0.153618,-0.03992 0.287494,-0.04459 0.401607,-0.01402 z"
         id="path826-1-4-6-3"
         inkscape:connector-curvature="0" />
    </g>
    <path
       d="m -44.694697,196.66967 q -2.9972,0 -4.9276,-0.7112 -1.8796,-0.7112 -2.794,-2.032 -0.9144,-1.3716 -0.9144,-3.2512 v -19.7104 q 0,-3.6068 2.032,-5.0292 2.0828,-1.4224 6.4516,-1.4224 4.1656,0 6.35,1.4224 2.2352,1.4224 2.2352,5.08 v 4.318 l -6.8072,0.254 v -3.2004 q 0,-1.4732 -0.3556,-1.9304 -0.3048,-0.4572 -1.3208,-0.4572 -1.1176,0 -1.4732,0.5588 -0.3048,0.508 -0.3048,1.778 v 17.272 q 0,0.5588 0.1524,0.9144 0.2032,0.3048 0.6096,0.4572 0.4064,0.1524 1.1176,0.1524 0.6604,0 1.0668,-0.1524 0.4064,-0.1524 0.5588,-0.4572 0.2032,-0.3556 0.2032,-0.9144 v -4.5212 h -2.2352 l 0.4064,-5.6896 h 8.382 v 11.2776 q 0,1.8796 -1.016,3.2512 -0.9652,1.3208 -2.8448,2.032 -1.8796,0.7112 -4.572,0.7112 z"
       style="font-weight:800;font-size:50.8px;line-height:1.25;font-family:'Smooch Sans';-inkscape-font-specification:'Smooch Sans Ultra-Bold';letter-spacing:-1.16152px;fill:#d1d5db;stroke-width:0.264583"
       id="path15698-7" />
    <path
       d="m -37.017097,196.31407 6.5024,-31.496 h 7.0104 l 6.5024,31.496 h -7.0612 l -1.2192,-6.4008 1.0668,0.9652 h -5.842 l 0.8636,-0.9652 -1.016,6.4008 z m 8.0772,-10.0584 -0.5588,-0.7112 h 4.9276 l -0.8128,0.7112 -1.524,-12.2936 -0.0508,-1.2192 h -0.254 l -0.0508,1.2192 z"
       style="font-weight:800;font-size:50.8px;line-height:1.25;font-family:'Smooch Sans';-inkscape-font-specification:'Smooch Sans Ultra-Bold';letter-spacing:-1.16152px;fill:#d1d5db;stroke-width:0.264583"
       id="path15700-3" />
    <path
       d="m -16.537897,196.31407 v -31.496 h 8.5344 l 4.4196,17.526 v 0.3048 h 0.1016 v -0.3048 l 4.41959997,-17.526 H 9.471706 v 31.496 H 2.715303 v -17.0688 h -0.1016 v 1.2192 l -3.40360003,11.2776 H -6.276297 l -3.4036,-11.2268 v -1.2192 h -0.1016 v 17.018 z"
       style="font-weight:800;font-size:50.8px;line-height:1.25;font-family:'Smooch Sans';-inkscape-font-specification:'Smooch Sans Ultra-Bold';letter-spacing:-1.16152px;fill:#d1d5db;stroke-width:0.264583"
       id="path15702-6" />
    <path
       d="m 11.154927,164.81807 h 16.154399 v 5.2832 h -9.397999 v 6.5024 h 8.280399 l -0.8128,5.2832 h -7.467599 v 9.144 h 9.397999 v 5.2832 H 11.154927 Z"
       style="font-weight:800;font-size:50.8px;line-height:1.25;font-family:'Smooch Sans';-inkscape-font-specification:'Smooch Sans Ultra-Bold';letter-spacing:-1.16152px;fill:#d1d5db;stroke-width:0.264583"
       id="path15704-2" />
    <path
       d="m 36.866584,196.77127 q -2.3368,0 -4.3688,-0.3556 -2.032,-0.3048 -3.302,-1.1684 -1.2192,-0.8636 -1.2192,-2.54 v -7.366 l 6.7564,-0.7112 v 5.1816 q 0,0.7112 0.3048,1.1684 0.3556,0.4064 1.4224,0.4064 0.7112,0 1.0668,-0.2032 0.3556,-0.254 0.508,-0.6096 0.1524,-0.4064 0.1524,-0.9144 v -2.8956 q 0,-1.1684 -0.5588,-2.1844 -0.508,-1.0668 -2.0828,-1.5748 l -3.3528,-1.0668 q -2.1844,-0.7112 -3.2004,-1.8288 -1.016,-1.1176 -1.016,-3.6068 v -7.0104 q 0,-2.2352 1.2192,-3.302 1.2192,-1.0668 3.2512,-1.3716 2.032,-0.3556 4.318,-0.3556 2.1844,0 4.0132,0.3556 1.8796,0.3556 2.9972,1.27 1.1684,0.8636 1.1684,2.4384 v 7.366 l -6.7564,0.9144 v -4.826 q 0,-1.524 -0.4064,-1.8796 -0.4064,-0.4064 -1.27,-0.4064 -0.9144,0 -1.3716,0.4572 -0.4064,0.4572 -0.4064,2.032 v 2.3368 q 0,1.016 0.3556,2.032 0.3556,0.9652 1.524,1.3716 l 3.81,1.27 q 2.3876,0.8128 3.4544,1.9304 1.0668,1.1176 1.0668,3.5052 v 6.9596 q 0,2.1336 -1.1176,3.2512 -1.1176,1.1176 -2.9464,1.524 -1.8288,0.4064 -4.0132,0.4064 z"
       style="font-weight:800;font-size:50.8px;line-height:1.25;font-family:'Smooch Sans';-inkscape-font-specification:'Smooch Sans Ultra-Bold';letter-spacing:-1.16152px;fill:#d1d5db;stroke-width:0.264583"
       id="path15706-7" />
    <path
       d="m 52.831465,164.81807 h 12.496794 q 2.1844,0 3.200397,0.5588 1.0668,0.508 1.3716,1.6256 0.3556,1.0668 0.3556,2.6924 v 6.9596 q 0,1.8288 -0.3048,3.4544 -0.3048,1.5748 -1.574797,2.5908 -1.27,0.9652 -4.1656,0.9652 h -4.622797 v 12.6492 h -6.756397 z m 12.953994,32.6644 -5.587997,-14.224 4.521197,-0.1016 1.9304,0.4572 0.3048,0.254 5.130797,11.1252 z m -3.962397,-19.1008 q 0.9652,0 1.320797,-0.5588 0.3556,-0.5588 0.3556,-1.8796 v -2.9972 q 0,-1.9304 -0.3048,-2.3876 -0.304797,-0.4572 -1.269997,-0.4572 h -2.3368 v 8.2804 z"
       style="font-weight:800;font-size:50.8px;line-height:1.25;font-family:'Smooch Sans';-inkscape-font-specification:'Smooch Sans Ultra-Bold';letter-spacing:-1.16152px;fill:#d1d5db;stroke-width:0.264583"
       id="path15708-1" />
    <path
       d="m 72.193106,164.81807 h 6.756397 v 31.496 h -6.756397 z"
       style="font-weight:800;font-size:50.8px;line-height:1.25;font-family:'Smooch Sans';-inkscape-font-specification:'Smooch Sans Ultra-Bold';letter-spacing:-1.16152px;fill:#d1d5db;stroke-width:0.264583"
       id="path15710-8" />
    <path
       d="m 89.065537,196.66967 q -2.9972,0 -4.927597,-0.7112 -1.8796,-0.7112 -2.794,-2.032 -0.9144,-1.3716 -0.9144,-3.2512 v -19.7104 q 0,-3.6068 2.032,-5.0292 2.082797,-1.4224 6.451597,-1.4224 4.165597,0 6.349994,1.4224 2.2352,1.4224 2.2352,5.08 v 4.318 l -6.807197,0.254 v -3.2004 q 0,-1.4732 -0.3556,-1.9304 -0.3048,-0.4572 -1.320797,-0.4572 -1.1176,0 -1.4732,0.5588 -0.3048,0.508 -0.3048,1.778 v 17.272 q 0,0.5588 0.1524,0.9144 0.2032,0.3048 0.6096,0.4572 0.4064,0.1524 1.1176,0.1524 0.660397,0 1.066797,-0.1524 0.4064,-0.1524 0.5588,-0.4572 0.2032,-0.3556 0.2032,-0.9144 v -4.5212 h -2.235197 l 0.4064,-5.6896 h 8.381994 v 11.2776 q 0,1.8796 -1.016,3.2512 -0.9652,1.3208 -2.844797,2.032 -1.8796,0.7112 -4.571997,0.7112 z"
       style="font-weight:800;font-size:50.8px;line-height:1.25;font-family:'Smooch Sans';-inkscape-font-specification:'Smooch Sans Ultra-Bold';letter-spacing:-1.16152px;fill:#d1d5db;stroke-width:0.264583"
       id="path15712-3" />
    <path
       d="m 98.825941,164.81807 h 6.756389 v 11.7856 h 3.4544 v -11.7856 h 6.7564 v 31.496 h -6.7564 v -14.4272 h -3.4544 v 14.4272 h -6.756389 z"
       style="font-weight:800;font-size:50.8px;line-height:1.25;font-family:'Smooch Sans';-inkscape-font-specification:'Smooch Sans Ultra-Bold';letter-spacing:-1.16152px;fill:#d1d5db;stroke-width:0.264583"
       id="path15714-3" />
    <path
       d="m 121.89596,170.10127 h -5.334 v -5.2832 h 17.4244 v 5.2832 h -5.334 v 26.2128 h -6.7564 z"
       style="font-weight:800;font-size:50.8px;line-height:1.25;font-family:'Smooch Sans';-inkscape-font-specification:'Smooch Sans Ultra-Bold';letter-spacing:-1.16152px;fill:#d1d5db;stroke-width:0.264583"
       id="path15716-2" />
    <path
       d="m 141.36607,196.31407 v -31.496 h 8.5344 l 4.4196,17.526 v 0.3048 h 0.1016 v -0.3048 l 4.4196,-17.526 h 8.5344 v 31.496 h -6.7564 v -17.0688 h -0.1016 v 1.2192 l -3.4036,11.2776 h -5.4864 l -3.4036,-11.2268 v -1.2192 h -0.1016 v 17.018 z"
       style="font-weight:800;font-size:50.8px;line-height:1.25;font-family:'Smooch Sans';-inkscape-font-specification:'Smooch Sans Ultra-Bold';letter-spacing:-1.16152px;fill:#d1d5db;stroke-width:0.264583"
       id="path15718-3" />
    <path
       d="m 169.0589,164.81807 h 16.1544 v 5.2832 h -9.398 v 6.5024 h 8.2804 l -0.8128,5.2832 h -7.4676 v 9.144 h 9.398 v 5.2832 h -16.1544 z"
       style="font-weight:800;font-size:50.8px;line-height:1.25;font-family:'Smooch Sans';-inkscape-font-specification:'Smooch Sans Ultra-Bold';letter-spacing:-1.16152px;fill:#d1d5db;stroke-width:0.264583"
       id="path15720-8" />
    <path
       d="m 220.99854,196.31407 -6.4008,-31.496 h 6.8072 l 2.9464,17.78 0.0508,1.1684 h 0.0508 v -1.1684 l 2.4892,-16.4592 h 5.08 l 2.4384,16.4592 0.0508,1.1684 h 0.0508 l 0.0508,-1.1684 2.6416,-17.78 h 7.0104 l -6.35,31.496 h -6.2992 l -1.9812,-14.478 -0.0508,-1.2192 h -0.0508 l -0.0508,1.2192 -2.1336,14.478 z"
       style="font-weight:800;font-size:50.8px;line-height:1.25;font-family:'Smooch Sans';-inkscape-font-specification:'Smooch Sans Ultra-Bold';letter-spacing:-1.16152px;fill:#d1d5db;stroke-width:0.264583"
       id="path15724-7" />
  </g>
</svg>
