<?xml version="1.0" encoding="UTF-8" standalone="no"?>
<!-- Created with Inkscape (http://www.inkscape.org/) -->

<svg
   xmlns:dc="http://purl.org/dc/elements/1.1/"
   xmlns:cc="http://creativecommons.org/ns#"
   xmlns:rdf="http://www.w3.org/1999/02/22-rdf-syntax-ns#"
   xmlns:svg="http://www.w3.org/2000/svg"
   xmlns="http://www.w3.org/2000/svg"
   xmlns:sodipodi="http://sodipodi.sourceforge.net/DTD/sodipodi-0.dtd"
   xmlns:inkscape="http://www.inkscape.org/namespaces/inkscape"
   width="200"
   height="200"
   viewBox="0 0 52.916665 52.916668"
   version="1.1"
   id="svg8"
   inkscape:version="0.92.2 (5c3e80d, 2017-08-06)"
   sodipodi:docname="comingsoon.svg">
  <defs
     id="defs2" />
  <sodipodi:namedview
     id="base"
     pagecolor="#4e342e"
     bordercolor="#666666"
     borderopacity="1.0"
     inkscape:pageopacity="0"
     inkscape:pageshadow="2"
     inkscape:zoom="0.98994949"
     inkscape:cx="-53.190479"
     inkscape:cy="144.7214"
     inkscape:document-units="px"
     inkscape:current-layer="layer1"
     showgrid="false"
     units="px"
     inkscape:window-width="1298"
     inkscape:window-height="776"
     inkscape:window-x="732"
     inkscape:window-y="29"
     inkscape:window-maximized="0"
     inkscape:pagecheckerboard="true" />
  <metadata
     id="metadata5">
    <rdf:RDF>
      <cc:Work
         rdf:about="">
        <dc:format>image/svg+xml</dc:format>
        <dc:type
           rdf:resource="http://purl.org/dc/dcmitype/StillImage" />
        <dc:title />
      </cc:Work>
    </rdf:RDF>
  </metadata>
  <g
     inkscape:groupmode="layer"
     id="layer2"
     inkscape:label="background"
     sodipodi:insensitive="true">
    <rect
       style="opacity:1;fill:#4e342e;fill-opacity:1;stroke:none;stroke-width:1.6356883;stroke-miterlimit:4;stroke-dasharray:none;stroke-dashoffset:0;stroke-opacity:1"
       id="rect823"
       width="52.916668"
       height="52.916668"
       x="-4.4408921e-016"
       y="-1.4382325e-006" />
  </g>
  <g
     inkscape:label="Layer 1"
     inkscape:groupmode="layer"
     id="layer1"
     transform="translate(0,-244.08332)">
    <g
       id="g4539"
       transform="matrix(1.6430371,0,0,1.6430371,-17.013688,-176.71855)">
      <text
         id="text817"
         y="286.72778"
         x="14.010964"
         style="font-style:normal;font-variant:normal;font-weight:normal;font-stretch:normal;font-size:4.16471386px;line-height:1.25;font-family:Roboto;-inkscape-font-specification:Roboto;letter-spacing:0px;word-spacing:0px;fill:#ffffff;fill-opacity:1;stroke:none;stroke-width:0.10411785"
         xml:space="preserve"><tspan
           style="fill:#ffffff;stroke-width:0.10411785"
           y="286.72778"
           x="14.010964"
           id="tspan815"
           sodipodi:role="line">Coming Soon</tspan></text>
      <path
         id="path2"
         d="m 25.673732,262.02744 q 0,0.90531 -0.28668,1.71254 -0.28669,0.80724 -0.95058,1.39569 -0.6639,0.58845 -1.5843,0.58845 -1.146723,0 -2.082211,-0.86758 -0.935484,-0.86759 -1.38814,-2.0445 -0.452656,-1.1769 -0.452656,-2.27836 0,-0.90531 0.286682,-1.71255 0.286682,-0.80723 0.950573,-1.39568 0.663895,-0.58846 1.584295,-0.58846 1.161817,0 2.089757,0.86759 0.92795,0.86759 1.38061,2.03695 0.45265,1.16936 0.45265,2.28591 z m -5.160276,7.28775 q 0,1.20708 -0.633717,2.0973 -0.633715,0.89022 -1.795531,0.89022 -1.146727,0 -2.135025,-0.83741 -0.988298,-0.83741 -1.516392,-2.01432 -0.528098,-1.1769 -0.528098,-2.29345 0,-1.20708 0.633718,-2.10484 0.633714,-0.89777 1.795529,-0.89777 1.146728,0 2.135026,0.83741 0.988298,0.83741 1.516392,2.02186 0.528098,1.18445 0.528098,2.301 z m 5.944876,-0.40739 q 1.78044,0 3.84757,1.47113 2.067132,1.47113 3.455272,3.57597 1.38814,2.10485 1.38814,3.84003 0,0.69407 -0.2565,1.15427 -0.25651,0.4602 -0.7318,0.67898 -0.47529,0.21878 -0.97321,0.30177 -0.49792,0.083 -1.14672,0.083 -1.02602,0 -2.829102,-0.67898 -1.80307,-0.67899 -2.75365,-0.67899 -0.99584,0 -2.90454,0.67144 -1.908697,0.67144 -3.025247,0.67144 -2.761196,0 -2.761196,-2.20292 0,-1.29762 0.844958,-2.88945 0.844957,-1.59184 2.104844,-2.90454 1.259892,-1.3127 2.829101,-2.20292 1.56921,-0.89022 2.91208,-0.89022 z m 3.60616,-3.18368 q -0.9204,0 -1.5843,-0.58845 -0.66389,-0.58845 -0.95058,-1.39569 -0.28668,-0.80723 -0.28668,-1.71254 0,-1.11655 0.45266,-2.28591 0.45265,-1.16936 1.3806,-2.03695 0.92794,-0.86759 2.089762,-0.86759 0.92039,0 1.58429,0.58846 0.66389,0.58845 0.95058,1.39568 0.28668,0.80724 0.28668,1.71255 0,1.10146 -0.45266,2.27836 -0.45266,1.17691 -1.38814,2.0445 -0.93549,0.86758 -2.082212,0.86758 z m 6.518232,-1.5692 q 1.16181,0 1.79553,0.89777 0.63372,0.89776 0.63372,2.10484 0,1.11655 -0.5281,2.29345 -0.5281,1.17691 -1.51639,2.01432 -0.9883,0.83741 -2.13503,0.83741 -1.16181,0 -1.79553,-0.89022 -0.63372,-0.89022 -0.63372,-2.0973 0,-1.11655 0.5281,-2.301 0.5281,-1.18445 1.5164,-2.02186 0.98829,-0.83741 2.13502,-0.83741 z"
         style="fill:#ffffff;stroke-width:0.01508851"
         inkscape:connector-curvature="0" />
    </g>
  </g>
</svg>
