<?xml version="1.0" standalone="no"?>
<!DOCTYPE svg PUBLIC "-//W3C//DTD SVG 20010904//EN"
 "http://www.w3.org/TR/2001/REC-SVG-20010904/DTD/svg10.dtd">
<svg version="1.0" xmlns="http://www.w3.org/2000/svg"
 width="624.000000pt" height="624.000000pt" viewBox="0 0 624.000000 624.000000"
 preserveAspectRatio="xMidYMid meet">
<metadata>
Created by potrace 1.14, written by Peter Selinger 2001-2017
</metadata>
<g transform="translate(0.000000,624.000000) scale(0.100000,-0.100000)"
fill="#000000" stroke="none">
<path d="M0 3120 l0 -3120 3120 0 3120 0 0 3120 0 3120 -3120 0 -3120 0 0
-3120z m4240 2240 l0 -80 40 0 40 0 0 -560 0 -560 40 0 40 0 0 -40 0 -40 40 0
40 0 0 -80 0 -80 40 0 40 0 0 -40 0 -40 40 0 40 0 0 -80 0 -80 40 0 40 0 0
-80 0 -80 40 0 40 0 0 -80 0 -80 40 0 40 0 0 -40 0 -40 -40 0 -40 0 0 40 0 40
-40 0 -40 0 0 40 0 40 -40 0 -40 0 0 40 0 40 -40 0 -40 0 0 -40 0 -40 -40 0
-40 0 0 -40 0 -40 40 0 40 0 0 -40 0 -40 80 0 80 0 0 -40 0 -40 40 0 40 0 0
-40 0 -40 40 0 40 0 0 -160 0 -160 -80 0 -80 0 0 -40 0 -40 40 0 40 0 0 -40 0
-40 40 0 40 0 0 -80 0 -80 -40 0 -40 0 0 -80 0 -80 -40 0 -40 0 0 -40 0 -40
-40 0 -40 0 0 -40 0 -40 80 0 80 0 0 40 0 40 120 0 120 0 0 40 0 40 360 0 360
0 0 -40 0 -40 -360 0 -360 0 0 -40 0 -40 80 0 80 0 0 -40 0 -40 120 0 120 0 0
-40 0 -40 80 0 80 0 0 -40 0 -40 -80 0 -80 0 0 40 0 40 -120 0 -120 0 0 40 0
40 -240 0 -240 0 0 -40 0 -40 120 0 120 0 0 -40 0 -40 120 0 120 0 0 -40 0
-40 80 0 80 0 0 -40 0 -40 40 0 40 0 0 -40 0 -40 40 0 40 0 0 -40 0 -40 40 0
40 0 0 -40 0 -40 40 0 40 0 0 -40 0 -40 -40 0 -40 0 0 40 0 40 -40 0 -40 0 0
40 0 40 -40 0 -40 0 0 40 0 40 -40 0 -40 0 0 40 0 40 -80 0 -80 0 0 40 0 40
-120 0 -120 0 0 40 0 40 -120 0 -120 0 0 40 0 40 -120 0 -120 0 0 -40 0 -40
-40 0 -40 0 0 -80 0 -80 -40 0 -40 0 0 -40 0 -40 -120 0 -120 0 0 -40 0 -40
40 0 40 0 0 -80 0 -80 -40 0 -40 0 0 -40 0 -40 -40 0 -40 0 0 -40 0 -40 -40 0
-40 0 0 -40 0 -40 -80 0 -80 0 0 -40 0 -40 -80 0 -80 0 0 40 0 40 -120 0 -120
0 0 40 0 40 -40 0 -40 0 0 40 0 40 -80 0 -80 0 0 -40 0 -40 -80 0 -80 0 0 40
0 40 -160 0 -160 0 0 -40 0 -40 -40 0 -40 0 0 -80 0 -80 -40 0 -40 0 0 -40 0
-40 -40 0 -40 0 0 -120 0 -120 -40 0 -40 0 0 -80 0 -80 -40 0 -40 0 0 80 0 80
40 0 40 0 0 120 0 120 40 0 40 0 0 40 0 40 40 0 40 0 0 80 0 80 40 0 40 0 0
40 0 40 40 0 40 0 0 40 0 40 -80 0 -80 0 0 -40 0 -40 -80 0 -80 0 0 -40 0 -40
-40 0 -40 0 0 -40 0 -40 -80 0 -80 0 0 -40 0 -40 -40 0 -40 0 0 -40 0 -40 -40
0 -40 0 0 -40 0 -40 -40 0 -40 0 0 -80 0 -80 -40 0 -40 0 0 -80 0 -80 -40 0
-40 0 0 -40 0 -40 -40 0 -40 0 0 40 0 40 40 0 40 0 0 80 0 80 40 0 40 0 0 80
0 80 40 0 40 0 0 40 0 40 40 0 40 0 0 40 0 40 40 0 40 0 0 40 0 40 40 0 40 0
0 40 0 40 80 0 80 0 0 40 0 40 40 0 40 0 0 40 0 40 -80 0 -80 0 0 -40 0 -40
-80 0 -80 0 0 -40 0 -40 -40 0 -40 0 0 -40 0 -40 -80 0 -80 0 0 -40 0 -40 -40
0 -40 0 0 -40 0 -40 -40 0 -40 0 0 -40 0 -40 -40 0 -40 0 0 -40 0 -40 -40 0
-40 0 0 40 0 40 40 0 40 0 0 40 0 40 40 0 40 0 0 40 0 40 40 0 40 0 0 40 0 40
40 0 40 0 0 40 0 40 80 0 80 0 0 40 0 40 40 0 40 0 0 40 0 40 80 0 80 0 0 40
0 40 120 0 120 0 0 80 0 80 -160 0 -160 0 0 40 0 40 -120 0 -120 0 0 40 0 40
40 0 40 0 0 40 0 40 40 0 40 0 0 80 0 80 -40 0 -40 0 0 -40 0 -40 -40 0 -40 0
0 -40 0 -40 -80 0 -80 0 0 40 0 40 -40 0 -40 0 0 40 0 40 -40 0 -40 0 0 80 0
80 -40 0 -40 0 0 120 0 120 -40 0 -40 0 0 240 0 240 40 0 40 0 0 80 0 80 -40
0 -40 0 0 80 0 80 -40 0 -40 0 0 120 0 120 40 0 40 0 0 40 0 40 -40 0 -40 0 0
40 0 40 -40 0 -40 0 0 80 0 80 -40 0 -40 0 0 80 0 80 -40 0 -40 0 0 120 0 120
-40 0 -40 0 0 120 0 120 40 0 40 0 0 40 0 40 120 0 120 0 0 -40 0 -40 40 0 40
0 0 -40 0 -40 80 0 80 0 0 -40 0 -40 40 0 40 0 0 -40 0 -40 80 0 80 0 0 -40 0
-40 80 0 80 0 0 -40 0 -40 40 0 40 0 0 -40 0 -40 80 0 80 0 0 -40 0 -40 80 0
80 0 0 40 0 40 80 0 80 0 0 40 0 40 160 0 160 0 0 40 0 40 120 0 120 0 0 40 0
40 120 0 120 0 0 40 0 40 80 0 80 0 0 40 0 40 40 0 40 0 0 40 0 40 40 0 40 0
0 80 0 80 40 0 40 0 0 80 0 80 40 0 40 0 0 80 0 80 40 0 40 0 0 80 0 80 40 0
40 0 0 80 0 80 40 0 40 0 0 40 0 40 40 0 40 0 0 40 0 40 80 0 80 0 0 -80z"/>
<path d="M4080 5320 l0 -40 -40 0 -40 0 0 -40 0 -40 40 0 40 0 0 -40 0 -40
-40 0 -40 0 0 -40 0 -40 -40 0 -40 0 0 -40 0 -40 -40 0 -40 0 0 -40 0 -40 40
0 40 0 0 -40 0 -40 -40 0 -40 0 0 -40 0 -40 -40 0 -40 0 0 -40 0 -40 -40 0
-40 0 0 -40 0 -40 40 0 40 0 0 -40 0 -40 40 0 40 0 0 -40 0 -40 -40 0 -40 0 0
-40 0 -40 40 0 40 0 0 -40 0 -40 40 0 40 0 0 40 0 40 40 0 40 0 0 -40 0 -40
40 0 40 0 0 40 0 40 40 0 40 0 0 40 0 40 40 0 40 0 0 40 0 40 -40 0 -40 0 0
40 0 40 40 0 40 0 0 40 0 40 -40 0 -40 0 0 40 0 40 40 0 40 0 0 40 0 40 -40 0
-40 0 0 40 0 40 40 0 40 0 0 40 0 40 -40 0 -40 0 0 40 0 40 40 0 40 0 0 40 0
40 -40 0 -40 0 0 40 0 40 40 0 40 0 0 40 0 40 -40 0 -40 0 0 40 0 40 -40 0
-40 0 0 -40z m80 -80 l0 -40 -40 0 -40 0 0 40 0 40 40 0 40 0 0 -40z m0 -160
l0 -40 -40 0 -40 0 0 -40 0 -40 40 0 40 0 0 -40 0 -40 -40 0 -40 0 0 -40 0
-40 40 0 40 0 0 -40 0 -40 -40 0 -40 0 0 -40 0 -40 40 0 40 0 0 -40 0 -40 -40
0 -40 0 0 -40 0 -40 40 0 40 0 0 -40 0 -40 -40 0 -40 0 0 -40 0 -40 -40 0 -40
0 0 40 0 40 -40 0 -40 0 0 -40 0 -40 -40 0 -40 0 0 40 0 40 40 0 40 0 0 40 0
40 -40 0 -40 0 0 40 0 40 -40 0 -40 0 0 40 0 40 40 0 40 0 0 40 0 40 40 0 40
0 0 40 0 40 40 0 40 0 0 40 0 40 -40 0 -40 0 0 40 0 40 40 0 40 0 0 40 0 40
40 0 40 0 0 40 0 40 40 0 40 0 0 -40z"/>
<path d="M4000 4920 l0 -40 40 0 40 0 0 40 0 40 -40 0 -40 0 0 -40z"/>
<path d="M4000 4760 l0 -40 -40 0 -40 0 0 -40 0 -40 -40 0 -40 0 0 -40 0 -40
40 0 40 0 0 -40 0 -40 40 0 40 0 0 -40 0 -40 40 0 40 0 0 40 0 40 -40 0 -40 0
0 40 0 40 40 0 40 0 0 40 0 40 -40 0 -40 0 0 40 0 40 40 0 40 0 0 40 0 40 -40
0 -40 0 0 -40z m0 -160 l0 -40 -40 0 -40 0 0 40 0 40 40 0 40 0 0 -40z"/>
<path d="M1120 4440 l0 -40 -40 0 -40 0 0 -40 0 -40 40 0 40 0 0 -40 0 -40 40
0 40 0 0 -40 0 -40 -40 0 -40 0 0 -40 0 -40 40 0 40 0 0 -40 0 -40 40 0 40 0
0 -40 0 -40 -40 0 -40 0 0 -40 0 -40 40 0 40 0 0 -40 0 -40 40 0 40 0 0 -40 0
-40 40 0 40 0 0 -40 0 -40 40 0 40 0 0 -40 0 -40 -40 0 -40 0 0 -40 0 -40 40
0 40 0 0 -40 0 -40 40 0 40 0 0 -40 0 -40 40 0 40 0 0 40 0 40 40 0 40 0 0
-40 0 -40 40 0 40 0 0 40 0 40 40 0 40 0 0 40 0 40 -40 0 -40 0 0 40 0 40 40
0 40 0 0 40 0 40 -40 0 -40 0 0 40 0 40 40 0 40 0 0 40 0 40 -40 0 -40 0 0 40
0 40 -40 0 -40 0 0 40 0 40 40 0 40 0 0 40 0 40 -40 0 -40 0 0 40 0 40 -40 0
-40 0 0 40 0 40 -40 0 -40 0 0 40 0 40 -40 0 -40 0 0 -40 0 -40 -40 0 -40 0 0
40 0 40 -40 0 -40 0 0 40 0 40 -40 0 -40 0 0 40 0 40 -40 0 -40 0 0 40 0 40
-40 0 -40 0 0 -40z m80 -80 l0 -40 40 0 40 0 0 -40 0 -40 40 0 40 0 0 -40 0
-40 40 0 40 0 0 -40 0 -40 40 0 40 0 0 40 0 40 40 0 40 0 0 -40 0 -40 40 0 40
0 0 -40 0 -40 40 0 40 0 0 -40 0 -40 -40 0 -40 0 0 -40 0 -40 40 0 40 0 0 -40
0 -40 40 0 40 0 0 -40 0 -40 -40 0 -40 0 0 -40 0 -40 40 0 40 0 0 -40 0 -40
-40 0 -40 0 0 -40 0 -40 40 0 40 0 0 -40 0 -40 -40 0 -40 0 0 40 0 40 -40 0
-40 0 0 -40 0 -40 -40 0 -40 0 0 40 0 40 -40 0 -40 0 0 40 0 40 40 0 40 0 0
40 0 40 -40 0 -40 0 0 40 0 40 -40 0 -40 0 0 40 0 40 -40 0 -40 0 0 40 0 40
-40 0 -40 0 0 40 0 40 40 0 40 0 0 40 0 40 -40 0 -40 0 0 40 0 40 -40 0 -40 0
0 40 0 40 40 0 40 0 0 40 0 40 -40 0 -40 0 0 40 0 40 -40 0 -40 0 0 40 0 40
40 0 40 0 0 -40z"/>
<path d="M1280 4120 l0 -40 40 0 40 0 0 -40 0 -40 40 0 40 0 0 -40 0 -40 -40
0 -40 0 0 -40 0 -40 40 0 40 0 0 -40 0 -40 40 0 40 0 0 -40 0 -40 40 0 40 0 0
-40 0 -40 40 0 40 0 0 -40 0 -40 -40 0 -40 0 0 -40 0 -40 40 0 40 0 0 40 0 40
40 0 40 0 0 40 0 40 -40 0 -40 0 0 40 0 40 40 0 40 0 0 40 0 40 -40 0 -40 0 0
40 0 40 -40 0 -40 0 0 40 0 40 40 0 40 0 0 40 0 40 -40 0 -40 0 0 40 0 40 -40
0 -40 0 0 -40 0 -40 -40 0 -40 0 0 40 0 40 -40 0 -40 0 0 40 0 40 -40 0 -40 0
0 -40z m320 -160 l0 -40 -40 0 -40 0 0 -40 0 -40 40 0 40 0 0 -40 0 -40 40 0
40 0 0 -40 0 -40 -40 0 -40 0 0 40 0 40 -40 0 -40 0 0 40 0 40 -40 0 -40 0 0
40 0 40 40 0 40 0 0 40 0 40 40 0 40 0 0 -40z"/>
<path d="M3280 3960 l0 -40 -40 0 -40 0 0 -120 0 -120 40 0 40 0 0 -40 0 -40
40 0 40 0 0 -40 0 -40 40 0 40 0 0 40 0 40 -40 0 -40 0 0 40 0 40 -40 0 -40 0
0 120 0 120 40 0 40 0 0 40 0 40 -40 0 -40 0 0 -40z"/>
<path d="M2400 3880 l0 -40 80 0 80 0 0 -40 0 -40 40 0 40 0 0 -40 0 -40 40 0
40 0 0 -80 0 -80 40 0 40 0 0 80 0 80 -40 0 -40 0 0 40 0 40 -40 0 -40 0 0 40
0 40 -40 0 -40 0 0 40 0 40 -80 0 -80 0 0 -40z"/>
<path d="M3440 3880 l0 -40 40 0 40 0 0 -40 0 -40 40 0 40 0 0 -80 0 -80 40 0
40 0 0 -80 0 -80 40 0 40 0 0 120 0 120 -40 0 -40 0 0 80 0 80 -40 0 -40 0 0
40 0 40 -80 0 -80 0 0 -40z"/>
<path d="M2480 3640 l0 -40 -40 0 -40 0 0 -200 0 -200 40 0 40 0 0 -40 0 -40
40 0 40 0 0 80 0 80 -40 0 -40 0 0 120 0 120 40 0 40 0 0 80 0 80 -40 0 -40 0
0 -40z"/>
<path d="M4000 3480 l0 -40 -40 0 -40 0 0 -40 0 -40 -40 0 -40 0 0 -40 0 -40
-40 0 -40 0 0 -80 0 -80 40 0 40 0 0 40 0 40 40 0 40 0 0 -40 0 -40 40 0 40 0
0 -40 0 -40 40 0 40 0 0 40 0 40 40 0 40 0 0 40 0 40 -40 0 -40 0 0 40 0 40
-40 0 -40 0 0 40 0 40 40 0 40 0 0 40 0 40 40 0 40 0 0 -40 0 -40 40 0 40 0 0
-40 0 -40 40 0 40 0 0 -80 0 -80 40 0 40 0 0 80 0 80 -40 0 -40 0 0 80 0 80
-40 0 -40 0 0 40 0 40 -120 0 -120 0 0 -40z"/>
<path d="M3600 3280 l0 -80 -40 0 -40 0 0 -160 0 -160 40 0 40 0 0 -80 0 -80
40 0 40 0 0 -80 0 -80 40 0 40 0 0 -80 0 -80 40 0 40 0 0 -80 0 -80 -120 0
-120 0 0 -40 0 -40 -120 0 -120 0 0 -40 0 -40 -80 0 -80 0 0 120 0 120 -40 0
-40 0 0 80 0 80 -40 0 -40 0 0 160 0 160 -40 0 -40 0 0 80 0 80 -40 0 -40 0 0
40 0 40 -40 0 -40 0 0 40 0 40 -40 0 -40 0 0 -40 0 -40 40 0 40 0 0 -40 0 -40
40 0 40 0 0 -80 0 -80 40 0 40 0 0 -80 0 -80 -40 0 -40 0 0 40 0 40 -40 0 -40
0 0 40 0 40 -40 0 -40 0 0 40 0 40 -40 0 -40 0 0 40 0 40 -200 0 -200 0 0 -40
0 -40 -40 0 -40 0 0 -40 0 -40 -40 0 -40 0 0 -80 0 -80 40 0 40 0 0 -80 0 -80
40 0 40 0 0 80 0 80 -40 0 -40 0 0 80 0 80 80 0 80 0 0 -40 0 -40 40 0 40 0 0
-40 0 -40 80 0 80 0 0 80 0 80 80 0 80 0 0 -120 0 -120 -40 0 -40 0 0 -40 0
-40 40 0 40 0 0 40 0 40 120 0 120 0 0 -40 0 -40 40 0 40 0 0 -80 0 -80 40 0
40 0 0 -120 0 -120 40 0 40 0 0 -40 0 -40 40 0 40 0 0 -40 0 -40 40 0 40 0 0
-40 0 -40 80 0 80 0 0 -40 0 -40 40 0 40 0 0 -80 0 -80 -40 0 -40 0 0 -40 0
-40 -40 0 -40 0 0 -40 0 -40 -80 0 -80 0 0 -40 0 -40 80 0 80 0 0 40 0 40 40
0 40 0 0 40 0 40 80 0 80 0 0 40 0 40 80 0 80 0 0 -40 0 -40 120 0 120 0 0 40
0 40 -120 0 -120 0 0 40 0 40 -80 0 -80 0 0 40 0 40 40 0 40 0 0 80 0 80 40 0
40 0 0 80 0 80 40 0 40 0 0 160 0 160 -40 0 -40 0 0 80 0 80 -40 0 -40 0 0 80
0 80 40 0 40 0 0 40 0 40 40 0 40 0 0 40 0 40 120 0 120 0 0 40 0 40 40 0 40
0 0 40 0 40 -40 0 -40 0 0 -40 0 -40 -160 0 -160 0 0 40 0 40 -40 0 -40 0 0
-160 0 -160 -40 0 -40 0 0 80 0 80 -40 0 -40 0 0 160 0 160 40 0 40 0 0 80 0
80 -40 0 -40 0 0 -80z m-1040 -440 l0 -40 -40 0 -40 0 0 40 0 40 40 0 40 0 0
-40z m1280 -720 l0 -40 -40 0 -40 0 0 -40 0 -40 -40 0 -40 0 0 -80 0 -80 -40
0 -40 0 0 40 0 40 -80 0 -80 0 0 40 0 40 -40 0 -40 0 0 40 0 40 120 0 120 0 0
40 0 40 120 0 120 0 0 -40z"/>
<path d="M1840 2680 l0 -40 -40 0 -40 0 0 -40 0 -40 -40 0 -40 0 0 -80 0 -80
-40 0 -40 0 0 -120 0 -120 40 0 40 0 0 80 0 80 40 0 40 0 0 40 0 40 40 0 40 0
0 40 0 40 40 0 40 0 0 40 0 40 40 0 40 0 0 40 0 40 -40 0 -40 0 0 40 0 40 -40
0 -40 0 0 -40z"/>
<path d="M3440 2520 l0 -40 -40 0 -40 0 0 -40 0 -40 80 0 80 0 0 80 0 80 -40
0 -40 0 0 -40z"/>
<path d="M2320 2440 l0 -40 120 0 120 0 0 40 0 40 -120 0 -120 0 0 -40z"/>
<path d="M2400 1480 l0 -40 40 0 40 0 0 40 0 40 -40 0 -40 0 0 -40z"/>
</g>
</svg>
