<?xml version="1.0" encoding="UTF-8" standalone="no"?>
<!-- Created with Inkscape (http://www.inkscape.org/) -->

<svg
   xmlns:dc="http://purl.org/dc/elements/1.1/"
   xmlns:cc="http://creativecommons.org/ns#"
   xmlns:rdf="http://www.w3.org/1999/02/22-rdf-syntax-ns#"
   xmlns:svg="http://www.w3.org/2000/svg"
   xmlns="http://www.w3.org/2000/svg"
   xmlns:sodipodi="http://sodipodi.sourceforge.net/DTD/sodipodi-0.dtd"
   xmlns:inkscape="http://www.inkscape.org/namespaces/inkscape"
   width="455.78122"
   height="169.02321"
   viewBox="0 0 120.59211 44.720725"
   version="1.1"
   id="svg8"
   inkscape:version="0.92.2 (5c3e80d, 2017-08-06)"
   sodipodi:docname="404.svg">
  <defs
     id="defs2" />
  <sodipodi:namedview
     id="base"
     pagecolor="#ffffff"
     bordercolor="#666666"
     borderopacity="1.0"
     inkscape:pageopacity="0.0"
     inkscape:pageshadow="2"
     inkscape:zoom="1.2073412"
     inkscape:cx="0.69795091"
     inkscape:cy="80.580258"
     inkscape:document-units="px"
     inkscape:current-layer="text849"
     showgrid="false"
     inkscape:pagecheckerboard="true"
     units="px"
     inkscape:window-width="1920"
     inkscape:window-height="1017"
     inkscape:window-x="-8"
     inkscape:window-y="-8"
     inkscape:window-maximized="1"
     fit-margin-top="0"
     fit-margin-left="0"
     fit-margin-right="0"
     fit-margin-bottom="0" />
  <metadata
     id="metadata5">
    <rdf:RDF>
      <cc:Work
         rdf:about="">
        <dc:format>image/svg+xml</dc:format>
        <dc:type
           rdf:resource="http://purl.org/dc/dcmitype/StillImage" />
        <dc:title />
      </cc:Work>
    </rdf:RDF>
  </metadata>
  <g
     inkscape:label="Layer 1"
     inkscape:groupmode="layer"
     id="layer1"
     transform="translate(-44.703941,-77.698097)">
    <g
       id="g858"
       transform="translate(4.3386495)">
      <g
         id="g822"
         transform="matrix(5.0817457,0,0,5.0817457,449.35267,217.24171)"
         inkscape:export-filename="E:\GitRPI\GamesRightMeow\static\favicon_16.png"
         inkscape:export-xdpi="96"
         inkscape:export-ydpi="96">
        <circle
           r="2.2855747"
           cy="-21.028538"
           cx="-68.641106"
           id="path818"
           style="opacity:1;fill:#ffffff;fill-opacity:1;stroke:none;stroke-width:2.16491508;stroke-miterlimit:4;stroke-dasharray:none;stroke-dashoffset:0;stroke-opacity:1" />
        <path
           inkscape:connector-curvature="0"
           id="path816"
           d="m -68.049556,-23.23623 a 2.2855715,2.2855715 0 0 0 -2.799242,1.616143 2.2855715,2.2855715 0 0 0 1.616143,2.799242 2.2855715,2.2855715 0 0 0 2.799242,-1.616143 2.2855715,2.2855715 0 0 0 -1.616143,-2.799242 z m -0.812144,0.439131 c 0.106609,0.02857 0.191827,0.09406 0.255641,0.19648 0.06382,0.10243 0.102106,0.212854 0.114892,0.331282 0.01278,0.118427 0.0055,0.228854 -0.022,0.331309 -0.02225,0.08307 -0.05647,0.158127 -0.102613,0.225153 -0.04615,0.06702 -0.106921,0.119364 -0.182305,0.157035 -0.07539,0.03767 -0.155303,0.04519 -0.239762,0.02257 -0.105226,-0.02819 -0.190098,-0.0936 -0.254604,-0.196203 -0.06451,-0.102613 -0.103045,-0.213469 -0.115648,-0.332592 -0.0126,-0.119119 -0.0054,-0.229208 0.02172,-0.330276 0.02226,-0.08307 0.05647,-0.158127 0.102613,-0.225152 0.04615,-0.06702 0.106922,-0.119363 0.182309,-0.157036 0.07538,-0.03767 0.155304,-0.04519 0.239756,-0.02256 z m 1.295898,0.347235 c 0.08445,0.02263 0.149911,0.0691 0.19636,0.139415 0.04645,0.07032 0.07291,0.146033 0.07936,0.227154 0.0065,0.08113 -0.0014,0.163223 -0.02371,0.246293 -0.02708,0.101069 -0.07585,0.200031 -0.146315,0.296891 -0.07047,0.09687 -0.159293,0.173595 -0.266463,0.230205 -0.10717,0.0566 -0.213378,0.0708 -0.318597,0.04261 -0.08446,-0.02263 -0.14991,-0.0691 -0.196359,-0.139417 -0.04645,-0.07032 -0.07291,-0.146031 -0.07937,-0.227151 -0.0065,-0.08112 0.0014,-0.163225 0.02371,-0.246295 0.02745,-0.102451 0.07632,-0.20175 0.146609,-0.29792 0.07028,-0.09617 0.158663,-0.172656 0.265138,-0.22945 0.106479,-0.0568 0.213026,-0.0709 0.319632,-0.04234 z m -2.311334,0.460209 c 0.105227,0.02819 0.192886,0.09287 0.262985,0.194008 0.0701,0.101145 0.114807,0.212543 0.134144,0.334209 0.01934,0.121672 0.01528,0.233719 -0.01218,0.336172 -0.02968,0.110761 -0.08454,0.199205 -0.164576,0.265311 -0.08003,0.06611 -0.173356,0.08486 -0.279962,0.0563 -0.105216,-0.02819 -0.192878,-0.09285 -0.262974,-0.193987 -0.07009,-0.101134 -0.114914,-0.212206 -0.134438,-0.333184 -0.01952,-0.120974 -0.01556,-0.232685 0.0119,-0.335139 0.02967,-0.11076 0.08462,-0.199542 0.164851,-0.26634 0.08023,-0.0668 0.173639,-0.08591 0.280246,-0.05735 z m 2.787008,0.746777 c 0.106609,0.02856 0.177949,0.09183 0.214026,0.189787 0.03608,0.09796 0.03927,0.202322 0.0096,0.313082 -0.02745,0.102451 -0.07987,0.20118 -0.157267,0.296186 -0.07739,0.09501 -0.171726,0.168792 -0.283002,0.221332 -0.111273,0.05254 -0.219529,0.0647 -0.324751,0.03651 -0.106609,-0.02857 -0.178042,-0.09147 -0.214304,-0.188738 -0.03626,-0.09727 -0.03955,-0.201295 -0.0099,-0.312054 0.02745,-0.102451 0.07997,-0.201518 0.157545,-0.29722 0.07758,-0.09569 0.172004,-0.169818 0.283278,-0.222359 0.111274,-0.05254 0.219535,-0.06472 0.324755,-0.03653 z m -1.568783,0.280789 c 0.163372,0.04378 0.321797,0.158575 0.475308,0.344387 0.153507,0.185811 0.268066,0.39235 0.343689,0.619615 0.07562,0.227272 0.09211,0.420512 0.04944,0.579728 -0.01706,0.06369 -0.04302,0.113498 -0.07786,0.149422 -0.03486,0.03592 -0.07677,0.05806 -0.125767,0.06645 -0.04899,0.0084 -0.09734,0.01026 -0.145075,0.0056 -0.04773,-0.0046 -0.10136,-0.0149 -0.160896,-0.03086 -0.09415,-0.02522 -0.215602,-0.09115 -0.364355,-0.197786 -0.148753,-0.10663 -0.266736,-0.171639 -0.353959,-0.19501 -0.09137,-0.02448 -0.232888,-0.02938 -0.424535,-0.0147 -0.191648,0.01469 -0.338701,0.0083 -0.441155,-0.01916 -0.253364,-0.06789 -0.352966,-0.202899 -0.298803,-0.405035 0.03191,-0.119067 0.106187,-0.241245 0.222861,-0.366534 0.116667,-0.125292 0.248935,-0.232676 0.396816,-0.322152 0.147881,-0.08947 0.304763,-0.155761 0.470638,-0.198865 0.165877,-0.04311 0.310436,-0.04815 0.433655,-0.01514 z"
           style="opacity:1;fill:#d50000;fill-opacity:1;stroke:none;stroke-width:0.04677066;stroke-miterlimit:4;stroke-dasharray:none;stroke-dashoffset:0;stroke-opacity:1"
           inkscape:export-filename="E:\GitRPI\GamesRightMeow\static\favicon_16.png"
           inkscape:export-xdpi="96"
           inkscape:export-ydpi="96" />
      </g>
      <text
         id="text827"
         y="122.41882"
         x="69.190483"
         style="font-style:normal;font-variant:normal;font-weight:normal;font-stretch:normal;font-size:33.86735153px;line-height:1.25;font-family:Roboto;-inkscape-font-specification:Roboto;letter-spacing:0px;word-spacing:0px;fill:#000000;fill-opacity:1;stroke:none;stroke-width:0.84668374"
         xml:space="preserve"><tspan
           style="stroke-width:0.84668374"
           y="122.41882"
           x="69.190483"
           id="tspan825"
           sodipodi:role="line">4 </tspan></text>
      <text
         id="text827-1"
         y="122.41882"
         x="112.20538"
         style="font-style:normal;font-variant:normal;font-weight:normal;font-stretch:normal;font-size:33.86735153px;line-height:1.25;font-family:Roboto;-inkscape-font-specification:Roboto;letter-spacing:0px;word-spacing:0px;fill:#000000;fill-opacity:1;stroke:none;stroke-width:0.8466838"
         xml:space="preserve"><tspan
           style="stroke-width:0.8466838"
           y="122.41882"
           x="112.20538"
           id="tspan825-7"
           sodipodi:role="line">4 </tspan></text>
    </g>
    <g
       aria-label="You've got to be kitten me"
       style="font-style:normal;font-variant:normal;font-weight:normal;font-stretch:normal;font-size:10.58333302px;line-height:1.25;font-family:Roboto;-inkscape-font-specification:Roboto;letter-spacing:0px;word-spacing:0px;fill:#000000;fill-opacity:1;stroke:none;stroke-width:0.26458332"
       id="text849">
      <path
         d="m 47.794192,81.889056 1.963704,-3.777547 h 1.126546 l -2.594156,4.718058 v 2.80603 h -0.992188 v -2.80603 l -2.594157,-4.718058 h 1.136882 z"
         style="stroke-width:0.26458332"
         id="path825" />
      <path
         d="m 51.132489,82.788226 q 0,-0.821655 0.320394,-1.477946 0.325562,-0.656291 0.89917,-1.012858 0.578776,-0.356567 1.317749,-0.356567 1.142049,0 1.844849,0.790649 0.707967,0.790649 0.707967,2.103231 v 0.06718 q 0,0.816488 -0.315226,1.467611 -0.310059,0.645955 -0.894003,1.00769 -0.578776,0.361735 -1.333252,0.361735 -1.136881,0 -1.844848,-0.790649 -0.7028,-0.79065 -0.7028,-2.092896 z m 0.961182,0.113688 q 0,0.930176 0.428914,1.493449 0.434082,0.563273 1.157552,0.563273 0.728638,0 1.157552,-0.568441 0.428915,-0.573608 0.428915,-1.601969 0,-0.919841 -0.43925,-1.488281 -0.434082,-0.573609 -1.157552,-0.573609 -0.707967,0 -1.142049,0.563273 -0.434082,0.563273 -0.434082,1.612305 z"
         style="stroke-width:0.26458332"
         id="path827" />
      <path
         d="m 60.873497,85.082659 q -0.558106,0.656291 -1.638143,0.656291 -0.894003,0 -1.364258,-0.516764 -0.465088,-0.521932 -0.470256,-1.539958 v -3.638021 h 0.956014 v 3.612183 q 0,1.27124 1.033529,1.27124 1.09554,0 1.457275,-0.816487 v -4.066936 h 0.956014 v 5.59139 h -0.909505 z"
         style="stroke-width:0.26458332"
         id="path829" />
      <path
         d="m 63.834555,78.271706 -0.10852,1.901692 h -0.666626 l 0.0052,-2.475301 h 0.769979 z"
         style="stroke-width:0.26458332"
         id="path831" />
      <path
         d="m 66.935142,84.338519 1.384928,-4.294312 h 0.976685 l -2.005046,5.59139 h -0.728637 l -2.025717,-5.59139 h 0.976685 z"
         style="stroke-width:0.26458332"
         id="path833" />
      <path
         d="m 72.474856,85.73895 q -1.136882,0 -1.850016,-0.744141 -0.713135,-0.749308 -0.713135,-1.999877 v -0.1757 q 0,-0.831991 0.315226,-1.483114 0.320394,-0.65629 0.888835,-1.023193 0.573608,-0.37207 1.240234,-0.37207 1.090373,0 1.694987,0.718302 0.604614,0.718302 0.604614,2.056722 v 0.397908 h -3.787882 q 0.02067,0.826823 0.480591,1.33842 0.465088,0.506429 1.178222,0.506429 0.506429,0 0.857829,-0.206706 0.3514,-0.206705 0.61495,-0.54777 l 0.583943,0.454753 Q 73.880455,85.73895 72.474856,85.73895 Z M 72.356,80.726336 q -0.578776,0 -0.971517,0.423747 -0.392741,0.418579 -0.485758,1.178223 h 2.800862 v -0.07235 q -0.04134,-0.728638 -0.39274,-1.126547 -0.3514,-0.403076 -0.950847,-0.403076 z"
         style="stroke-width:0.26458332"
         id="path835" />
      <path
         d="m 78.154095,82.793394 q 0,-1.307414 0.604614,-2.077393 0.604614,-0.775146 1.601969,-0.775146 1.023194,0 1.596802,0.72347 l 0.04651,-0.620118 h 0.873331 v 5.457032 q 0,1.085205 -0.645955,1.710489 -0.640788,0.625285 -1.725993,0.625285 -0.604614,0 -1.18339,-0.258382 -0.578776,-0.258382 -0.883667,-0.707967 l 0.496094,-0.573608 q 0.614949,0.759643 1.503784,0.759643 0.697632,0 1.085205,-0.392741 0.392741,-0.392741 0.392741,-1.105875 v -0.480591 q -0.573609,0.661458 -1.565796,0.661458 -0.981852,0 -1.591634,-0.790649 -0.604614,-0.79065 -0.604614,-2.154907 z m 0.961181,0.10852 q 0,0.945679 0.387574,1.488281 0.387573,0.537435 1.085205,0.537435 0.904337,0 1.328084,-0.821655 v -2.552816 q -0.43925,-0.800984 -1.317749,-0.800984 -0.697632,0 -1.090373,0.542602 -0.392741,0.542603 -0.392741,1.607137 z"
         style="stroke-width:0.26458332"
         id="path837" />
      <path
         d="m 84.06071,82.788226 q 0,-0.821655 0.320393,-1.477946 0.325562,-0.656291 0.89917,-1.012858 0.578776,-0.356567 1.317749,-0.356567 1.142049,0 1.844849,0.790649 0.707967,0.790649 0.707967,2.103231 v 0.06718 q 0,0.816488 -0.315226,1.467611 -0.310059,0.645955 -0.894002,1.00769 -0.578776,0.361735 -1.333252,0.361735 -1.136882,0 -1.844849,-0.790649 -0.702799,-0.79065 -0.702799,-2.092896 z m 0.961181,0.113688 q 0,0.930176 0.428915,1.493449 0.434082,0.563273 1.157552,0.563273 0.728637,0 1.157552,-0.568441 0.428914,-0.573608 0.428914,-1.601969 0,-0.919841 -0.43925,-1.488281 -0.434082,-0.573609 -1.157552,-0.573609 -0.707967,0 -1.142049,0.563273 -0.434082,0.563273 -0.434082,1.612305 z"
         style="stroke-width:0.26458332"
         id="path839" />
      <path
         d="m 91.646811,78.690285 v 1.353922 h 1.043864 v 0.738973 h -1.043864 v 3.467489 q 0,0.335897 0.139526,0.506429 0.139527,0.165364 0.475424,0.165364 0.165364,0 0.454752,-0.06201 v 0.775146 q -0.377238,0.103353 -0.733805,0.103353 -0.640788,0 -0.966349,-0.387573 -0.325562,-0.387573 -0.325562,-1.100708 V 80.78318 h -1.018026 v -0.738973 h 1.018026 v -1.353922 z"
         style="stroke-width:0.26458332"
         id="path841" />
      <path
         d="m 97.72396,78.690285 v 1.353922 h 1.043863 V 80.78318 H 97.72396 v 3.467489 q 0,0.335897 0.139526,0.506429 0.139526,0.165364 0.475423,0.165364 0.165365,0 0.454753,-0.06201 v 0.775146 q -0.377238,0.103353 -0.733806,0.103353 -0.640787,0 -0.966349,-0.387573 -0.325561,-0.387573 -0.325561,-1.100708 V 80.78318 H 95.74992 v -0.738973 h 1.018026 v -1.353922 z"
         style="stroke-width:0.26458332"
         id="path843" />
      <path
         d="m 99.522299,82.788226 q 0,-0.821655 0.320394,-1.477946 0.325557,-0.656291 0.899167,-1.012858 0.57878,-0.356567 1.31775,-0.356567 1.14205,0 1.84485,0.790649 0.70797,0.790649 0.70797,2.103231 v 0.06718 q 0,0.816488 -0.31523,1.467611 -0.31006,0.645955 -0.894,1.00769 -0.57878,0.361735 -1.33325,0.361735 -1.13688,0 -1.84485,-0.790649 -0.702801,-0.79065 -0.702801,-2.092896 z m 0.961181,0.113688 q 0,0.930176 0.42892,1.493449 0.43408,0.563273 1.15755,0.563273 0.72864,0 1.15755,-0.568441 0.42891,-0.573608 0.42891,-1.601969 0,-0.919841 -0.43925,-1.488281 -0.43408,-0.573609 -1.15755,-0.573609 -0.70796,0 -1.14205,0.563273 -0.43408,0.563273 -0.43408,1.612305 z"
         style="stroke-width:0.26458332"
         id="path845" />
      <path
         d="m 113.17004,82.901914 q 0,1.281576 -0.58911,2.06189 -0.58911,0.775146 -1.5813,0.775146 -1.05936,0 -1.63814,-0.749308 l -0.0465,0.645955 h -0.8785 v -7.9375 h 0.95602 v 2.96106 q 0.57877,-0.718302 1.5968,-0.718302 1.01802,0 1.5968,0.769978 0.58394,0.769979 0.58394,2.108399 z m -0.95601,-0.10852 q 0,-0.976685 -0.37724,-1.508952 -0.37724,-0.532267 -1.0852,-0.532267 -0.94568,0 -1.35909,0.878499 v 2.418457 q 0.43925,0.878499 1.36942,0.878499 0.6873,0 1.0697,-0.532267 0.38241,-0.532267 0.38241,-1.601969 z"
         style="stroke-width:0.26458332"
         id="path847" />
      <path
         d="m 116.68921,85.73895 q -1.13688,0 -1.85001,-0.744141 -0.71314,-0.749308 -0.71314,-1.999877 v -0.1757 q 0,-0.831991 0.31523,-1.483114 0.32039,-0.65629 0.88883,-1.023193 0.57361,-0.37207 1.24024,-0.37207 1.09037,0 1.69498,0.718302 0.60462,0.718302 0.60462,2.056722 v 0.397908 h -3.78789 q 0.0207,0.826823 0.4806,1.33842 0.46508,0.506429 1.17822,0.506429 0.50643,0 0.85783,-0.206706 0.3514,-0.206705 0.61495,-0.54777 l 0.58394,0.454753 q -0.7028,1.080037 -2.1084,1.080037 z m -0.11885,-5.012614 q -0.57878,0 -0.97152,0.423747 -0.39274,0.418579 -0.48576,1.178223 h 2.80086 v -0.07235 q -0.0413,-0.728638 -0.39274,-1.126547 -0.3514,-0.403076 -0.95084,-0.403076 z"
         style="stroke-width:0.26458332"
         id="path849" />
      <path
         d="m 124.15645,83.046608 -0.59945,0.625285 v 1.963704 h -0.95601 v -7.9375 h 0.95601 v 4.800741 l 0.5116,-0.61495 1.7415,-1.839681 h 1.16272 l -2.17558,2.335775 2.42879,3.255615 h -1.12138 z"
         style="stroke-width:0.26458332"
         id="path851" />
      <path
         d="m 129.00887,85.635597 h -0.95601 v -5.59139 h 0.95601 z m -1.03353,-7.074503 q 0,-0.232544 0.13953,-0.392741 0.14469,-0.160197 0.42374,-0.160197 0.27906,0 0.42375,0.160197 0.1447,0.160197 0.1447,0.392741 0,0.232544 -0.1447,0.387573 -0.14469,0.155029 -0.42375,0.155029 -0.27905,0 -0.42374,-0.155029 -0.13953,-0.155029 -0.13953,-0.387573 z"
         style="stroke-width:0.26458332"
         id="path853" />
      <path
         d="m 131.8304,78.690285 v 1.353922 h 1.04386 v 0.738973 h -1.04386 v 3.467489 q 0,0.335897 0.13953,0.506429 0.13952,0.165364 0.47542,0.165364 0.16537,0 0.45475,-0.06201 v 0.775146 q -0.37723,0.103353 -0.7338,0.103353 -0.64079,0 -0.96635,-0.387573 -0.32556,-0.387573 -0.32556,-1.100708 V 80.78318 h -1.01803 v -0.738973 h 1.01803 v -1.353922 z"
         style="stroke-width:0.26458332"
         id="path855" />
      <path
         d="m 135.28239,78.690285 v 1.353922 h 1.04386 v 0.738973 h -1.04386 v 3.467489 q 0,0.335897 0.13953,0.506429 0.13952,0.165364 0.47542,0.165364 0.16536,0 0.45475,-0.06201 v 0.775146 q -0.37724,0.103353 -0.7338,0.103353 -0.64079,0 -0.96635,-0.387573 -0.32556,-0.387573 -0.32556,-1.100708 V 80.78318 h -1.01803 v -0.738973 h 1.01803 v -1.353922 z"
         style="stroke-width:0.26458332"
         id="path857" />
      <path
         d="m 139.75757,85.73895 q -1.13688,0 -1.85002,-0.744141 -0.71313,-0.749308 -0.71313,-1.999877 v -0.1757 q 0,-0.831991 0.31523,-1.483114 0.32039,-0.65629 0.88883,-1.023193 0.57361,-0.37207 1.24024,-0.37207 1.09037,0 1.69498,0.718302 0.60462,0.718302 0.60462,2.056722 v 0.397908 h -3.78789 q 0.0207,0.826823 0.48059,1.33842 0.46509,0.506429 1.17823,0.506429 0.50643,0 0.85783,-0.206706 0.3514,-0.206705 0.61495,-0.54777 l 0.58394,0.454753 q -0.7028,1.080037 -2.1084,1.080037 z m -0.11885,-5.012614 q -0.57878,0 -0.97152,0.423747 -0.39274,0.418579 -0.48576,1.178223 h 2.80086 v -0.07235 q -0.0413,-0.728638 -0.39274,-1.126547 -0.3514,-0.403076 -0.95084,-0.403076 z"
         style="stroke-width:0.26458332"
         id="path859" />
      <path
         d="m 143.94336,80.044207 0.031,0.7028 q 0.64078,-0.806152 1.67431,-0.806152 1.7725,0 1.78801,1.999877 v 3.694865 h -0.95602 v -3.700032 q -0.005,-0.604614 -0.27905,-0.894002 -0.26872,-0.289388 -0.84233,-0.289388 -0.46508,0 -0.81648,0.248046 -0.3514,0.248047 -0.54777,0.651123 v 3.984253 h -0.95602 v -5.59139 z"
         style="stroke-width:0.26458332"
         id="path861" />
      <path
         d="m 152.41313,80.044207 0.0258,0.620118 q 0.61495,-0.72347 1.65881,-0.72347 1.17306,0 1.5968,0.899169 0.27906,-0.403076 0.72347,-0.651123 0.44959,-0.248046 1.05937,-0.248046 1.83968,0 1.87069,1.948201 v 3.746541 h -0.95602 V 81.9459 q 0,-0.599447 -0.27388,-0.894002 -0.27389,-0.299723 -0.91984,-0.299723 -0.53227,0 -0.88367,0.320393 -0.3514,0.315227 -0.40824,0.852662 v 3.710367 h -0.96119 v -3.663859 q 0,-1.219563 -1.19372,-1.219563 -0.94051,0 -1.28674,0.800984 v 4.082438 h -0.95602 v -5.59139 z"
         style="stroke-width:0.26458332"
         id="path863" />
      <path
         d="m 163.11531,85.73895 q -1.13688,0 -1.85001,-0.744141 -0.71314,-0.749308 -0.71314,-1.999877 v -0.1757 q 0,-0.831991 0.31523,-1.483114 0.32039,-0.65629 0.88883,-1.023193 0.57361,-0.37207 1.24024,-0.37207 1.09037,0 1.69498,0.718302 0.60462,0.718302 0.60462,2.056722 v 0.397908 h -3.78788 q 0.0207,0.826823 0.48059,1.33842 0.46508,0.506429 1.17822,0.506429 0.50643,0 0.85783,-0.206706 0.3514,-0.206705 0.61495,-0.54777 l 0.58394,0.454753 q -0.7028,1.080037 -2.1084,1.080037 z m -0.11885,-5.012614 q -0.57878,0 -0.97152,0.423747 -0.39274,0.418579 -0.48576,1.178223 h 2.80086 v -0.07235 q -0.0413,-0.728638 -0.39274,-1.126547 -0.3514,-0.403076 -0.95084,-0.403076 z"
         style="stroke-width:0.26458332"
         id="path865" />
    </g>
  </g>
</svg>
