<?xml version="1.0" encoding="UTF-8" standalone="no"?>
<!-- Created with Inkscape (http://www.inkscape.org/) -->

<svg
   xmlns:dc="http://purl.org/dc/elements/1.1/"
   xmlns:cc="http://creativecommons.org/ns#"
   xmlns:rdf="http://www.w3.org/1999/02/22-rdf-syntax-ns#"
   xmlns:svg="http://www.w3.org/2000/svg"
   xmlns="http://www.w3.org/2000/svg"
   xmlns:sodipodi="http://sodipodi.sourceforge.net/DTD/sodipodi-0.dtd"
   xmlns:inkscape="http://www.inkscape.org/namespaces/inkscape"
   width="74.075691mm"
   height="25.109539mm"
   viewBox="0 0 74.075691 25.109539"
   version="1.1"
   id="svg1453"
   inkscape:version="0.92.2 (5c3e80d, 2017-08-06)"
   sodipodi:docname="logo.svg">
  <defs
     id="defs1447" />
  <sodipodi:namedview
     id="base"
     pagecolor="#ffffff"
     bordercolor="#666666"
     borderopacity="1.0"
     inkscape:pageopacity="0.0"
     inkscape:pageshadow="2"
     inkscape:zoom="3.959798"
     inkscape:cx="60.104774"
     inkscape:cy="82.521362"
     inkscape:document-units="px"
     inkscape:current-layer="g829"
     showgrid="false"
     inkscape:pagecheckerboard="true"
     inkscape:window-width="1920"
     inkscape:window-height="1017"
     inkscape:window-x="-8"
     inkscape:window-y="-8"
     inkscape:window-maximized="1"
     fit-margin-top="0"
     fit-margin-left="0"
     fit-margin-right="0"
     fit-margin-bottom="0" />
  <metadata
     id="metadata1450">
    <rdf:RDF>
      <cc:Work
         rdf:about="">
        <dc:format>image/svg+xml</dc:format>
        <dc:type
           rdf:resource="http://purl.org/dc/dcmitype/StillImage" />
        <dc:title />
      </cc:Work>
    </rdf:RDF>
  </metadata>
  <g
     inkscape:label="Layer 1"
     inkscape:groupmode="layer"
     id="layer1"
     transform="translate(-65.015726,-143.83809)">
    <g
       id="g829"
       transform="translate(1.5971546,-0.08156119)">
      <g
         aria-label="GAMES"
         style="font-style:normal;font-variant:normal;font-weight:bold;font-stretch:normal;font-size:14.35862827px;line-height:1.25;font-family:Roboto;-inkscape-font-specification:'Roboto Bold';text-align:center;letter-spacing:0px;word-spacing:0px;text-anchor:middle;fill:#212121;fill-opacity:1;stroke:none;stroke-width:0.35896569"
         id="text831-7">
        <path
           d="m 73.888043,157.09943 q -0.567895,0.631 -1.661619,1.0166 -1.093724,0.38561 -2.397779,0.38561 -2.00516,0 -3.204049,-1.22693 -1.198889,-1.22694 -1.283022,-3.41438 l -0.007,-0.8834 q 0,-1.50737 0.53284,-2.62914 0.532839,-1.12878 1.521397,-1.73173 0.995569,-0.60996 2.299624,-0.60996 1.907006,0 2.958663,0.87638 1.058668,0.86937 1.233945,2.6011 h -2.369735 q -0.126199,-0.85535 -0.546862,-1.21992 -0.420663,-0.36458 -1.191878,-0.36458 -0.925459,0 -1.430254,0.78524 -0.504796,0.78524 -0.511807,2.24354 v 0.61697 q 0,1.52841 0.518818,2.29962 0.525829,0.76421 1.647596,0.76421 0.960514,0 1.430254,-0.42768 v -1.58449 h -1.710696 v -1.68967 h 4.171575 z"
           style="font-style:normal;font-variant:normal;font-weight:900;font-stretch:normal;font-family:Roboto;-inkscape-font-specification:'Roboto Heavy';text-align:center;text-anchor:middle;fill:#212121;fill-opacity:1;stroke-width:0.35896569"
           id="path839" />
        <path
           d="m 81.116434,156.45441 h -3.372315 l -0.588928,1.90701 h -2.629143 l 3.7439,-10.20809 h 2.313646 l 3.771944,10.20809 h -2.643165 z m -2.783387,-1.89999 h 2.194459 l -1.100735,-3.54058 z"
           style="font-style:normal;font-variant:normal;font-weight:900;font-stretch:normal;font-family:Roboto;-inkscape-font-specification:'Roboto Heavy';text-align:center;text-anchor:middle;fill:#212121;fill-opacity:1;stroke-width:0.35896569"
           id="path841" />
        <path
           d="m 88.337814,148.15333 2.278591,7.10219 2.27158,-7.10219 h 3.239104 v 10.20809 H 93.6592 v -2.38376 l 0.238376,-4.87969 -2.467889,7.26345 h -1.626564 l -2.4749,-7.27046 0.238376,4.8867 v 2.38376 H 85.10572 v -10.20809 z"
           style="font-style:normal;font-variant:normal;font-weight:900;font-stretch:normal;font-family:Roboto;-inkscape-font-specification:'Roboto Heavy';text-align:center;text-anchor:middle;fill:#212121;fill-opacity:1;stroke-width:0.35896569"
           id="path843" />
        <path
           d="m 104.02854,154.0356 h -3.8701 v 2.43284 h 4.57121 v 1.89298 h -7.032087 v -10.20809 h 7.046107 v 1.9 h -4.58523 v 2.15239 h 3.8701 z"
           style="font-style:normal;font-variant:normal;font-weight:900;font-stretch:normal;font-family:Roboto;-inkscape-font-specification:'Roboto Heavy';text-align:center;text-anchor:middle;fill:#212121;fill-opacity:1;stroke-width:0.35896569"
           id="path845" />
        <path
           d="m 111.01155,155.64814 q 0,-0.53985 -0.38561,-0.84132 -0.3786,-0.30148 -1.33911,-0.62399 -0.96051,-0.3225 -1.57048,-0.62398 -1.98412,-0.97453 -1.98412,-2.67822 0,-0.84834 0.49077,-1.49335 0.49779,-0.65203 1.40221,-1.00959 0.90443,-0.36458 2.03321,-0.36458 1.10073,0 1.9701,0.39262 0.87638,0.39262 1.36014,1.12177 0.48377,0.72214 0.48377,1.65461 h -2.45387 q 0,-0.62399 -0.38561,-0.96753 -0.3786,-0.34354 -1.03062,-0.34354 -0.65904,0 -1.04465,0.29446 -0.3786,0.28746 -0.3786,0.73616 0,0.39262 0.42067,0.71513 0.42066,0.3155 1.47933,0.65904 1.05867,0.33653 1.73874,0.72915 1.65461,0.9535 1.65461,2.62914 0,1.33911 -1.0096,2.10332 -1.00959,0.7642 -2.76936,0.7642 -1.24096,0 -2.25055,-0.4417 -1.00258,-0.4487 -1.51438,-1.21992 -0.5048,-0.77822 -0.5048,-1.78782 h 2.46789 q 0,0.8203 0.42066,1.21292 0.42768,0.3856 1.38118,0.3856 0.60996,0 0.96051,-0.25941 0.35757,-0.26641 0.35757,-0.74317 z"
           style="font-style:normal;font-variant:normal;font-weight:900;font-stretch:normal;font-family:Roboto;-inkscape-font-specification:'Roboto Heavy';text-align:center;text-anchor:middle;fill:#212121;fill-opacity:1;stroke-width:0.35896569"
           id="path847" />
      </g>
      <g
         aria-label="RIGHT MEOW"
         style="font-style:normal;font-variant:normal;font-weight:bold;font-stretch:normal;font-size:7.85889816px;line-height:1.25;font-family:Roboto;-inkscape-font-specification:'Roboto Bold';text-align:center;letter-spacing:-0.39294493px;word-spacing:0px;text-anchor:middle;fill:#212121;fill-opacity:1;stroke:none;stroke-width:0.19647245"
         id="text839-5">
        <path
           d="m 69.558373,163.07227 h -1.082134 v 2.15275 h -0.97085 v -5.58718 h 1.964725 q 0.967013,0 1.49273,0.43362 0.525717,0.43362 0.525717,1.25481 0,0.56025 -0.272452,0.94015 -0.268615,0.37606 -0.752121,0.57944 l 1.254814,2.32928 v 0.0499 H 70.67888 Z m -1.082134,-0.77899 h 0.997712 q 0.491181,0 0.767471,-0.24559 0.276289,-0.24942 0.276289,-0.67921 0,-0.44897 -0.257103,-0.69456 -0.253265,-0.24559 -0.759796,-0.25326 h -1.024573 z"
           style="font-style:normal;font-variant:normal;font-weight:500;font-stretch:normal;font-family:Roboto;-inkscape-font-specification:'Roboto Medium';text-align:center;letter-spacing:-0.39294493px;text-anchor:middle;fill:#212121;fill-opacity:1;stroke-width:0.19647245"
           id="path820" />
        <path
           d="m 73.048829,165.22502 h -0.967013 v -5.58718 h 0.967013 z"
           style="font-style:normal;font-variant:normal;font-weight:500;font-stretch:normal;font-family:Roboto;-inkscape-font-specification:'Roboto Medium';text-align:center;letter-spacing:-0.39294493px;text-anchor:middle;fill:#212121;fill-opacity:1;stroke-width:0.19647245"
           id="path822" />
        <path
           d="m 78.139461,164.49976 q -0.303151,0.39525 -0.84038,0.59863 -0.53723,0.20338 -1.220278,0.20338 -0.702236,0 -1.243303,-0.3185 -0.541066,-0.3185 -0.836542,-0.90945 -0.291639,-0.59479 -0.303151,-1.38529 v -0.43746 q 0,-1.26632 0.606301,-1.97623 0.606302,-0.71375 1.692273,-0.71375 0.932477,0 1.481218,0.46048 0.548741,0.46048 0.660025,1.32773 H 77.18396 q -0.161169,-1.00923 -1.170392,-1.00923 -0.65235,0 -0.993875,0.472 -0.337687,0.46815 -0.349199,1.37761 v 0.42978 q 0,0.90561 0.379898,1.40831 0.383735,0.49885 1.062947,0.49885 0.744446,0 1.059109,-0.33768 v -1.09365 h -1.151206 v -0.73677 h 2.118219 z"
           style="font-style:normal;font-variant:normal;font-weight:500;font-stretch:normal;font-family:Roboto;-inkscape-font-specification:'Roboto Medium';text-align:center;letter-spacing:-0.39294493px;text-anchor:middle;fill:#212121;fill-opacity:1;stroke-width:0.19647245"
           id="path824" />
        <path
           d="m 83.256954,165.22502 h -0.967013 v -2.48277 h -2.498117 v 2.48277 h -0.97085 v -5.58718 h 0.97085 v 2.32543 h 2.498117 v -2.32543 h 0.967013 z"
           style="font-style:normal;font-variant:normal;font-weight:500;font-stretch:normal;font-family:Roboto;-inkscape-font-specification:'Roboto Medium';text-align:center;letter-spacing:-0.39294493px;text-anchor:middle;fill:#212121;fill-opacity:1;stroke-width:0.19647245"
           id="path826" />
        <path
           d="m 87.944664,160.42066 h -1.742158 v 4.80436 H 85.23933 v -4.80436 h -1.726808 v -0.78282 h 4.432142 z"
           style="font-style:normal;font-variant:normal;font-weight:500;font-stretch:normal;font-family:Roboto;-inkscape-font-specification:'Roboto Medium';text-align:center;letter-spacing:-0.39294493px;text-anchor:middle;fill:#212121;fill-opacity:1;stroke-width:0.19647245"
           id="path828" />
        <path
           d="m 90.88868,159.63784 1.611688,4.28248 1.607851,-4.28248 h 1.254814 v 5.58718 h -0.967012 v -1.84193 l 0.09593,-2.46358 -1.650061,4.30551 h -0.694561 l -1.646224,-4.30167 0.09593,2.45974 v 1.84193 h -0.967012 v -5.58718 z"
           style="font-style:normal;font-variant:normal;font-weight:500;font-stretch:normal;font-family:Roboto;-inkscape-font-specification:'Roboto Medium';text-align:center;letter-spacing:-0.39294493px;text-anchor:middle;fill:#212121;fill-opacity:1;stroke-width:0.19647245"
           id="path830" />
        <path
           d="M 99.379207,162.73074 H 97.08447 v 1.71914 h 2.682309 v 0.77514 H 96.11362 v -5.58718 h 3.626298 v 0.78282 H 97.08447 v 1.54261 h 2.294737 z"
           style="font-style:normal;font-variant:normal;font-weight:500;font-stretch:normal;font-family:Roboto;-inkscape-font-specification:'Roboto Medium';text-align:center;letter-spacing:-0.39294493px;text-anchor:middle;fill:#212121;fill-opacity:1;stroke-width:0.19647245"
           id="path832" />
        <path
           d="m 104.63101,162.57725 q 0,0.82119 -0.28397,1.44284 -0.28396,0.61782 -0.81352,0.95167 -0.52571,0.33001 -1.2126,0.33001 -0.67921,0 -1.2126,-0.33001 -0.52956,-0.33385 -0.8212,-0.94783 -0.287797,-0.61398 -0.291635,-1.41598 v -0.31467 q 0,-0.81735 0.287805,-1.44284 0.29164,-0.62549 0.81735,-0.9555 0.52956,-0.33385 1.21261,-0.33385 0.68305,0 1.20876,0.33001 0.52956,0.32618 0.81736,0.94399 0.2878,0.61398 0.29164,1.43133 z m -0.97085,-0.29164 q 0,-0.92864 -0.35304,-1.42366 -0.3492,-0.49502 -0.99387,-0.49502 -0.62933,0 -0.9862,0.49502 -0.35304,0.49118 -0.36071,1.39296 v 0.32234 q 0,0.92096 0.35687,1.42366 0.36071,0.50269 0.99771,0.50269 0.64468,0 0.99004,-0.49118 0.3492,-0.49118 0.3492,-1.43517 z"
           style="font-style:normal;font-variant:normal;font-weight:500;font-stretch:normal;font-family:Roboto;-inkscape-font-specification:'Roboto Medium';text-align:center;letter-spacing:-0.39294493px;text-anchor:middle;fill:#212121;fill-opacity:1;stroke-width:0.19647245"
           id="path834" />
        <path
           d="m 109.59501,163.84357 0.85957,-4.20573 h 0.96317 l -1.28935,5.58718 h -0.92864 l -1.06295,-4.0791 -1.08597,4.0791 h -0.93247 l -1.28935,-5.58718 h 0.96317 l 0.86724,4.19806 1.06679,-4.19806 h 0.81352 z"
           style="font-style:normal;font-variant:normal;font-weight:500;font-stretch:normal;font-family:Roboto;-inkscape-font-specification:'Roboto Medium';text-align:center;letter-spacing:-0.39294493px;text-anchor:middle;fill:#212121;fill-opacity:1;stroke-width:0.19647245"
           id="path836" />
      </g>
      <g
         inkscape:export-ydpi="96"
         inkscape:export-xdpi="96"
         inkscape:export-filename="E:\GitRPI\GamesRightMeow\static\favicon_16.png"
         transform="matrix(5.0817457,0,0,5.0817457,474.68654,263.3361)"
         id="g822">
        <circle
           style="opacity:1;fill:#ffffff;fill-opacity:1;stroke:none;stroke-width:2.16491508;stroke-miterlimit:4;stroke-dasharray:none;stroke-dashoffset:0;stroke-opacity:1"
           id="path818"
           cx="-68.641106"
           cy="-21.028538"
           r="2.2855747" />
        <path
           inkscape:export-ydpi="96"
           inkscape:export-xdpi="96"
           inkscape:export-filename="E:\GitRPI\GamesRightMeow\static\favicon_16.png"
           style="opacity:1;fill:#d50000;fill-opacity:1;stroke:none;stroke-width:0.04677066;stroke-miterlimit:4;stroke-dasharray:none;stroke-dashoffset:0;stroke-opacity:1"
           d="m -68.049556,-23.23623 a 2.2855715,2.2855715 0 0 0 -2.799242,1.616143 2.2855715,2.2855715 0 0 0 1.616143,2.799242 2.2855715,2.2855715 0 0 0 2.799242,-1.616143 2.2855715,2.2855715 0 0 0 -1.616143,-2.799242 z m -0.812144,0.439131 c 0.106609,0.02857 0.191827,0.09406 0.255641,0.19648 0.06382,0.10243 0.102106,0.212854 0.114892,0.331282 0.01278,0.118427 0.0055,0.228854 -0.022,0.331309 -0.02225,0.08307 -0.05647,0.158127 -0.102613,0.225153 -0.04615,0.06702 -0.106921,0.119364 -0.182305,0.157035 -0.07539,0.03767 -0.155303,0.04519 -0.239762,0.02257 -0.105226,-0.02819 -0.190098,-0.0936 -0.254604,-0.196203 -0.06451,-0.102613 -0.103045,-0.213469 -0.115648,-0.332592 -0.0126,-0.119119 -0.0054,-0.229208 0.02172,-0.330276 0.02226,-0.08307 0.05647,-0.158127 0.102613,-0.225152 0.04615,-0.06702 0.106922,-0.119363 0.182309,-0.157036 0.07538,-0.03767 0.155304,-0.04519 0.239756,-0.02256 z m 1.295898,0.347235 c 0.08445,0.02263 0.149911,0.0691 0.19636,0.139415 0.04645,0.07032 0.07291,0.146033 0.07936,0.227154 0.0065,0.08113 -0.0014,0.163223 -0.02371,0.246293 -0.02708,0.101069 -0.07585,0.200031 -0.146315,0.296891 -0.07047,0.09687 -0.159293,0.173595 -0.266463,0.230205 -0.10717,0.0566 -0.213378,0.0708 -0.318597,0.04261 -0.08446,-0.02263 -0.14991,-0.0691 -0.196359,-0.139417 -0.04645,-0.07032 -0.07291,-0.146031 -0.07937,-0.227151 -0.0065,-0.08112 0.0014,-0.163225 0.02371,-0.246295 0.02745,-0.102451 0.07632,-0.20175 0.146609,-0.29792 0.07028,-0.09617 0.158663,-0.172656 0.265138,-0.22945 0.106479,-0.0568 0.213026,-0.0709 0.319632,-0.04234 z m -2.311334,0.460209 c 0.105227,0.02819 0.192886,0.09287 0.262985,0.194008 0.0701,0.101145 0.114807,0.212543 0.134144,0.334209 0.01934,0.121672 0.01528,0.233719 -0.01218,0.336172 -0.02968,0.110761 -0.08454,0.199205 -0.164576,0.265311 -0.08003,0.06611 -0.173356,0.08486 -0.279962,0.0563 -0.105216,-0.02819 -0.192878,-0.09285 -0.262974,-0.193987 -0.07009,-0.101134 -0.114914,-0.212206 -0.134438,-0.333184 -0.01952,-0.120974 -0.01556,-0.232685 0.0119,-0.335139 0.02967,-0.11076 0.08462,-0.199542 0.164851,-0.26634 0.08023,-0.0668 0.173639,-0.08591 0.280246,-0.05735 z m 2.787008,0.746777 c 0.106609,0.02856 0.177949,0.09183 0.214026,0.189787 0.03608,0.09796 0.03927,0.202322 0.0096,0.313082 -0.02745,0.102451 -0.07987,0.20118 -0.157267,0.296186 -0.07739,0.09501 -0.171726,0.168792 -0.283002,0.221332 -0.111273,0.05254 -0.219529,0.0647 -0.324751,0.03651 -0.106609,-0.02857 -0.178042,-0.09147 -0.214304,-0.188738 -0.03626,-0.09727 -0.03955,-0.201295 -0.0099,-0.312054 0.02745,-0.102451 0.07997,-0.201518 0.157545,-0.29722 0.07758,-0.09569 0.172004,-0.169818 0.283278,-0.222359 0.111274,-0.05254 0.219535,-0.06472 0.324755,-0.03653 z m -1.568783,0.280789 c 0.163372,0.04378 0.321797,0.158575 0.475308,0.344387 0.153507,0.185811 0.268066,0.39235 0.343689,0.619615 0.07562,0.227272 0.09211,0.420512 0.04944,0.579728 -0.01706,0.06369 -0.04302,0.113498 -0.07786,0.149422 -0.03486,0.03592 -0.07677,0.05806 -0.125767,0.06645 -0.04899,0.0084 -0.09734,0.01026 -0.145075,0.0056 -0.04773,-0.0046 -0.10136,-0.0149 -0.160896,-0.03086 -0.09415,-0.02522 -0.215602,-0.09115 -0.364355,-0.197786 -0.148753,-0.10663 -0.266736,-0.171639 -0.353959,-0.19501 -0.09137,-0.02448 -0.232888,-0.02938 -0.424535,-0.0147 -0.191648,0.01469 -0.338701,0.0083 -0.441155,-0.01916 -0.253364,-0.06789 -0.352966,-0.202899 -0.298803,-0.405035 0.03191,-0.119067 0.106187,-0.241245 0.222861,-0.366534 0.116667,-0.125292 0.248935,-0.232676 0.396816,-0.322152 0.147881,-0.08947 0.304763,-0.155761 0.470638,-0.198865 0.165877,-0.04311 0.310436,-0.04815 0.433655,-0.01514 z"
           id="path816"
           inkscape:connector-curvature="0" />
      </g>
    </g>
  </g>
</svg>
